<svg xmlns="http://www.w3.org/2000/svg" xmlns:xlink="http://www.w3.org/1999/xlink" width="853" height="220" viewBox="0 0 853 220"><defs><style>.a{clip-path:url(#b);}.b{fill:#fbcf09;}.c{fill:#fff;}.d{fill:#f8981d;}</style><clipPath id="b"><rect width="853" height="220"/></clipPath></defs><g id="a" class="a"><g transform="translate(-181.446 -547.247)"><g transform="translate(328 38)"><g transform="translate(15 88.903)"><circle class="b" cx="100" cy="100" r="100" transform="translate(-150.554 430.344)"/><g transform="translate(-112.072 455.553)"><g transform="translate(26.422 9.367)"><path class="c" d="M483.3,271.3l-3.373-.038-1.033-3.211a9.532,9.532,0,0,0-12.251-6.064l-2.523.893-2.05-1.719a14.082,14.082,0,0,0-22.543,6.788l-.981,3.309-3.451.044a12.063,12.063,0,0,0-11.868,12.017v.516h-.09V286.7h50.038V318.16a3.894,3.894,0,0,0,7.789,0V286.7h14.364v-3.468A12.094,12.094,0,0,0,483.3,271.3Z" transform="translate(-423.14 -257.87)"/></g><g transform="translate(26.422 47.564)"><path class="b" d="M485.464,427.425a9.878,9.878,0,0,0,9.867-9.867V400.7h-27.14v-9.367h27.14V383.2a19.194,19.194,0,0,1,6.761-14.624,19.2,19.2,0,0,1-6.761-14.625V338.773h-5v22.094a13.262,13.262,0,0,1-26.524,0V338.773H429.9v15.183a19.2,19.2,0,0,1-6.761,14.625A19.194,19.194,0,0,1,429.9,383.2v34.354a9.878,9.878,0,0,0,9.867,9.867h2.4v9.367h34.785v-9.367Zm-51.313-36.6V381.31l12.913-7.065-12.913-7.065v-9.512l21.574,11.8v9.546Z" transform="translate(-423.14 -338.773)"/></g><g transform="translate(19.66 47.564)"><path class="d" d="M422.341,417.558V383.2a19.194,19.194,0,0,0-6.761-14.624,19.2,19.2,0,0,0,6.761-14.625V338.773H415.58v15.183a19.194,19.194,0,0,1-6.762,14.625A19.193,19.193,0,0,1,415.58,383.2v34.354a9.878,9.878,0,0,0,9.867,9.867h6.761A9.878,9.878,0,0,1,422.341,417.558Z" transform="translate(-408.818 -338.773)"/></g><g transform="translate(0)"><path d="M485.023,310.642a9.878,9.878,0,0,1-9.867-9.867V272.758a21.509,21.509,0,0,0-18.128-21.032,18.912,18.912,0,0,0-20.518-9.748,23.446,23.446,0,0,0-34.357,9.777,21.561,21.561,0,0,0-17.818,20.463h-.1v28.558a9.878,9.878,0,0,1-9.866,9.867h-7.188v9.515h7.188a9.878,9.878,0,0,1,9.866,9.866v34.354a19.256,19.256,0,0,0,19.235,19.234h9.162v-9.367h-9.162a9.878,9.878,0,0,1-9.867-9.867V330.024a19.193,19.193,0,0,0-6.762-14.624,19.194,19.194,0,0,0,6.762-14.625V285.593h40.671v22.094a13.262,13.262,0,0,0,26.523,0V285.593h5v15.183A19.2,19.2,0,0,0,472.55,315.4a19.194,19.194,0,0,0-6.761,14.624v8.128h-27.14v9.367h27.14v16.859a9.878,9.878,0,0,1-9.867,9.867h-8.511v9.367h8.511a19.256,19.256,0,0,0,19.234-19.234V330.024a9.878,9.878,0,0,1,9.867-9.866h7.187v-9.515Zm-19.234-34.417H451.425v31.461a3.894,3.894,0,0,1-7.789,0V276.225H393.6v-2.868h.09v-.516a12.064,12.064,0,0,1,11.868-12.017l3.451-.043.981-3.309a14.082,14.082,0,0,1,22.543-6.788l2.05,1.719,2.523-.893a9.532,9.532,0,0,1,12.251,6.064l1.033,3.211,3.373.038a12.094,12.094,0,0,1,12.029,11.933Z" transform="translate(-367.176 -238.029)"/></g><g transform="translate(37.433 66.459)"><path d="M468.036,400.145V390.6l-21.574-11.8v9.512l12.913,7.065-12.913,7.065v9.511Z" transform="translate(-446.462 -378.794)"/></g></g></g><g transform="translate(-112 -44.084)"><g transform="translate(12)"><path class="c" d="M268.021,631.526H288.7c-2.738,15.181-12.555,25.507-26.212,29.82a47.634,47.634,0,0,1-14.429,2.165,43.089,43.089,0,0,1-30.3-12.145,41.949,41.949,0,0,1,0-59.759,44.375,44.375,0,0,1,56.633-3.847,36.144,36.144,0,0,1,14.189,22.484H267.47a33.471,33.471,0,0,0-2.278-4.568c-3.349-4.763-9.3-8.177-17.134-8.177-10.845,0-17.955,6.639-21.162,14.549a24.718,24.718,0,0,0-1.8,9.379c0,10.955,6.262,18.9,14.068,22.244a22.361,22.361,0,0,0,8.9,1.8C258.275,645.474,265.067,639.72,268.021,631.526Z"/><path class="c" d="M395.224,661.706H375.986V618.78l-22.6,42.926h-9.138L321.517,618.54v43.166H302.279v-80.56h19.479l27.054,51.1,27.054-51.1h19.358Z"/><path class="c" d="M443.433,581.146c20.546,0,34.885,9.462,41,24.047a41.556,41.556,0,0,1,3.126,16.233c0,12.872-5.06,22.593-12.144,29.1-7.373,6.772-18.27,11.183-31.983,11.183H411.569v-80.56Zm-.722,17.194h-11.3v46.172h11.3c14.453,0,24.89-8.83,24.89-23.086S457.162,598.34,442.711,598.34Z"/><path class="c" d="M567.272,603.149c0,6.207-2.561,11.094-6.492,14.008a14.09,14.09,0,0,1-6.733,2.947v.48c6.2.518,11.921,5.016,13.888,10.04a23.082,23.082,0,0,1,1.623,8.477c0,14.813-11.008,22.6-26.574,22.6H501.142v-80.56h41.722C556.9,581.146,567.272,589.462,567.272,603.149Zm-28.255-6.011H520.98v17.314h17.315c5.548,0,9.739-3.572,9.739-9.018C548.034,600.531,543.979,597.138,539.017,597.138Zm.841,30.9H520.98v17.675H539.5c5.917,0,9.86-3.287,9.86-9.018C549.357,631.41,545.242,628.039,539.858,628.039Z"/><path class="c" d="M623.178,600.5a17.9,17.9,0,0,1,4.328.481l-.842,19.239h-3.486q-20.8,0-20.8,22.6v18.877H583.138v-60.36h19.238v11.543C606.486,606.235,613,600.5,623.178,600.5Z"/><path class="c" d="M665.619,663.51a32.164,32.164,0,0,1-22.484-8.837,31.742,31.742,0,0,1-9.379-23.147c0-15.222,8.659-25.237,19.719-29.638a32.855,32.855,0,0,1,12.264-2.345c14.583,0,24.2,8.257,28.557,18.877a35.852,35.852,0,0,1,2.586,13.106v4.93H652.633c1.407,6.193,5.836,11.663,12.985,11.663q9.02,0,12.866-6.973l17.075,3.487C690.889,655.84,681.43,663.51,665.619,663.51Zm.12-48.336a13.5,13.5,0,0,0-12.746,9.5h24.89C676.344,619.355,672.121,615.174,665.739,615.174Z"/><path class="c" d="M776.356,661.826H759.644l-10.822-32.705L737.88,661.826H721.167l-19.358-60.48h18.877l9.86,32.465,11.423-32.465h13.587l11.423,32.585,9.859-32.585h18.877Z"/></g><g transform="translate(-70)"><path class="c" d="M300.505,712.342c0,2.391,1.541,3.461,3.785,3.926l9.744,2.172c7.243,1.628,12.9,5.447,12.9,13.669,0,8.067-5.495,12.433-11.917,14.231a27.445,27.445,0,0,1-7.43.981c-8.413,0-14.945-3.076-18.3-8.237a14.9,14.9,0,0,1-2.243-5.993h12.789c1.4,2.98,4.374,4.627,8.381,4.627,3.594,0,6.939-1.52,6.939-4.837,0-2.668-1.782-3.609-4.346-4.136l-9.813-2.1q-12.619-2.874-12.619-13.6c0-9.656,8.5-14.791,18.577-14.791,10.241,0,17.649,5.128,19.418,13.6H314.2a8.264,8.264,0,0,0-7.381-4.276C303.55,707.575,300.505,709.287,300.505,712.342Z"/><path class="c" d="M359.53,709.4V746.27h-11.5V709.4H332.822V699.3h41.92V709.4Z"/><path class="c" d="M413.437,725.1V699.3H425v25.8c0,10.39-4.9,17.617-12.373,20.644a22.276,22.276,0,0,1-8.446,1.577c-10.372,0-16.9-5.5-19.768-13.178a25.676,25.676,0,0,1-1.542-9.043V699.3h11.565v25.8c0,6.567,3.441,11.566,9.745,11.566C410.241,736.666,413.437,731.493,413.437,725.1Z"/><path class="c" d="M454.376,699.3c11.978,0,20.338,5.515,23.9,14.019a24.227,24.227,0,0,1,1.822,9.463,22.364,22.364,0,0,1-7.08,16.964c-4.3,3.948-10.651,6.52-18.646,6.52H435.8V699.3Zm-.421,10.023h-6.589v26.918h6.589c8.426,0,14.511-5.147,14.511-13.459S462.38,709.327,453.955,709.327Z"/><path class="c" d="M489.427,746.27V699.3h11.566V746.27Z"/><path class="c" d="M553.077,705.437a24.373,24.373,0,0,1,7.29,17.419,24.076,24.076,0,0,1-7.29,17.315,25.571,25.571,0,0,1-35.471,0,24.058,24.058,0,0,1-7.29-17.315,24.405,24.405,0,0,1,7.29-17.419,25.482,25.482,0,0,1,35.471,0Zm-5.293,22.887a14.845,14.845,0,0,0,1.017-5.468c0-6.17-3.344-10.873-7.886-12.828a14,14,0,0,0-5.573-1.191A13.017,13.017,0,0,0,523.04,717a15.734,15.734,0,0,0-1.157,5.853,13.374,13.374,0,0,0,13.459,13.88A12.919,12.919,0,0,0,547.784,728.324Z"/><path class="c" d="M588.759,746.27V699.3h11.566V746.27Z"/><path class="c" d="M656.124,746.27h-9.533l-23.764-27.2v27.2H611.261V699.3h9.6l23.764,28.039V699.3h11.5Z"/><path class="c" d="M702.112,728.675h12.055a21.6,21.6,0,0,1-15.281,17.385,27.808,27.808,0,0,1-8.412,1.261,25.121,25.121,0,0,1-17.665-7.08,24.458,24.458,0,0,1,0-34.84,25.874,25.874,0,0,1,33.017-2.243,21.077,21.077,0,0,1,8.272,13.11H701.791a19.34,19.34,0,0,0-1.328-2.664,11.858,11.858,0,0,0-9.989-4.767,12.974,12.974,0,0,0-12.337,8.481,14.419,14.419,0,0,0-1.052,5.468,13.745,13.745,0,0,0,8.2,12.969,13.026,13.026,0,0,0,5.187,1.052A11.771,11.771,0,0,0,702.112,728.675Z"/><path class="c" d="M728.048,734a6.508,6.508,0,0,1,6.449,6.31,6.415,6.415,0,0,1-12.828,0A6.444,6.444,0,0,1,728.048,734Z"/></g></g></g></g></g></svg>