<svg width="2139" height="1623" viewBox="0 0 2139 1623" fill="none" xmlns="http://www.w3.org/2000/svg">
<path fill-rule="evenodd" clip-rule="evenodd" d="M564.163 1171.53C620.703 1183.88 686.575 1226.09 818.315 1310.52C898.932 1362.17 888.515 1361.86 913.623 1374.06C1065.85 1447.99 1254.55 1365.24 1366.33 1314.49C1458.62 1272.59 1491.16 1244.67 1715.79 1084.16C2068.99 831.786 2103.39 818.743 2124.82 750.587C2187.22 552.129 2021.13 263.446 1834.93 226.397C1721.75 203.876 1585.15 271.142 1417.96 353.474C1311.96 405.674 1275.94 437.979 1207.49 436.868C1061.54 434.497 1035.99 246.301 929.507 246.254C807.499 246.198 803.352 478.821 584.018 599.685C458.494 668.856 419.162 615.085 266.327 694.992C202.785 728.214 -8.4512 838.655 0.261796 996.799C6.4408 1108.93 121.505 1214.39 234.562 1235.07C374.33 1260.63 418.105 1139.61 564.163 1171.53Z" fill="#EFEAF6"/>
<path fill-rule="evenodd" clip-rule="evenodd" d="M542.623 0H1437.7C1473.04 0 1501.7 28.6538 1501.7 64V741.909C1501.7 777.255 1473.04 805.909 1437.7 805.909H542.623C507.277 805.909 478.623 777.255 478.623 741.909V64C478.623 28.6538 507.277 0 542.623 0Z" fill="#404884"/>
<path fill-rule="evenodd" clip-rule="evenodd" d="M400 789.123C400 827.341 430.982 858.323 469.2 858.323H1353.86C1392.08 858.323 1423.07 827.341 1423.07 789.123V137.595H400V789.123Z" fill="#D5D8ED"/>
<path fill-rule="evenodd" clip-rule="evenodd" d="M1353.87 52.4121H469.202C430.984 52.4121 400.002 83.394 400.002 121.612V137.586H1423.07V121.621C1423.07 103.266 1415.78 85.6617 1402.8 72.6821C1389.83 59.7025 1372.22 52.411 1353.87 52.4121V52.4121Z" fill="#ACB0DA"/>
<path fill-rule="evenodd" clip-rule="evenodd" d="M474.662 116.772C470.228 116.768 465.993 114.936 462.953 111.709C456.484 104.846 456.484 94.1312 462.953 87.2688C465.991 84.0387 470.228 82.207 474.663 82.207C479.097 82.207 483.335 84.0387 486.373 87.2688C492.84 94.1318 492.84 104.846 486.373 111.709C483.332 114.936 479.096 116.768 474.662 116.772Z" fill="white"/>
<path fill-rule="evenodd" clip-rule="evenodd" d="M520.527 116.772C516.093 116.767 511.858 114.936 508.818 111.709C502.35 104.846 502.35 94.1318 508.818 87.2688C511.856 84.0387 516.094 82.207 520.528 82.207C524.962 82.207 529.2 84.0387 532.238 87.2688C538.705 94.1318 538.705 104.846 532.238 111.709C529.197 114.936 524.961 116.768 520.527 116.772V116.772Z" fill="white"/>
<path fill-rule="evenodd" clip-rule="evenodd" d="M566.392 116.772C561.958 116.768 557.721 114.936 554.681 111.709C548.214 104.846 548.214 94.132 554.681 87.2688C557.719 84.0387 561.956 82.207 566.391 82.207C570.825 82.207 575.063 84.0387 578.101 87.2688C584.568 94.1318 584.568 104.846 578.101 111.709C575.061 114.936 570.825 116.768 566.392 116.772V116.772Z" fill="white"/>
<rect x="458.102" y="180.839" width="290.04" height="82.362" fill="#ACB0DA"/>
<rect x="819.248" y="180.839" width="498.618" height="82.362" fill="#ACB0DA"/>
<rect x="459.912" y="528.101" width="284.763" height="18.346" fill="#ACB0DA"/>
<rect x="459.912" y="592.312" width="853.084" height="18.346" fill="#ACB0DA"/>
<rect x="459.912" y="656.522" width="853.084" height="18.346" fill="#ACB0DA"/>
<rect x="459.912" y="720.733" width="853.084" height="18.346" fill="#ACB0DA"/>
<rect x="459.912" y="329.111" width="284.763" height="18.346" fill="#ACB0DA"/>
<rect x="459.912" y="393.322" width="284.763" height="18.346" fill="#ACB0DA"/>
<rect x="459.912" y="457.532" width="284.763" height="18.346" fill="#ACB0DA"/>
<path fill-rule="evenodd" clip-rule="evenodd" d="M1522.15 414.279C1522.15 414.279 1485.73 413.066 1465.7 473.156C1445.67 533.246 1518.51 533.246 1507.58 567.844C1496.66 602.442 1478.45 688.023 1587.7 662.531C1696.96 637.039 1602.27 484.693 1522.15 414.279Z" fill="#FF90C6"/>
<path fill-rule="evenodd" clip-rule="evenodd" d="M1692.55 734.625L1693.07 734.858C1692.94 734.947 1692.8 735.027 1692.66 735.116L1622.27 883.185L1646.97 897.801L1730.94 791.15C1737.56 782.781 1750.93 755.192 1747.37 745.134C1744.06 735.798 1720.91 719.497 1702.11 704.772C1683.87 690.479 1692.55 734.625 1692.55 734.625Z" fill="#FFD5C0"/>
<path fill-rule="evenodd" clip-rule="evenodd" d="M1679.58 755.952C1679.58 755.952 1725.23 793.052 1730.76 729.006C1730.76 729.006 1653.59 652.683 1597.4 615.86C1568.79 597.106 1512.05 629.285 1527.44 641.96C1623.38 720.949 1679.58 755.952 1679.58 755.952Z" fill="#FFD5C0"/>
<path fill-rule="evenodd" clip-rule="evenodd" d="M1597.11 1560.24C1597.11 1560.24 1509.71 1591.2 1506.06 1613.05C1502.42 1634.9 1642.63 1611.23 1642.63 1611.23C1642.63 1611.23 1651.74 1523.82 1597.11 1560.24Z" fill="#485194"/>
<path fill-rule="evenodd" clip-rule="evenodd" d="M1910.46 1472.04C1910.46 1472.04 1861.87 1551.01 1872.76 1570.3C1883.65 1589.6 1977.9 1483.14 1977.9 1483.14C1977.9 1483.14 1930.11 1409.39 1910.46 1472.04Z" fill="#485194"/>
<path fill-rule="evenodd" clip-rule="evenodd" d="M1598.93 855.552C1598.93 855.552 1655.38 1166.93 1702.72 1236.12C1750.06 1305.32 1899.38 1492.87 1899.38 1492.87L1946.72 1447.35C1946.72 1447.35 1833.82 1228.84 1777.38 1206.99C1777.38 1206.99 1742.78 1134.15 1740.96 1026.72C1739.14 919.283 1735.5 842.806 1655.38 837.343C1575.26 831.88 1598.93 855.552 1598.93 855.552Z" fill="#E3616E"/>
<path fill-rule="evenodd" clip-rule="evenodd" d="M1555.23 868.3C1555.23 868.3 1544.3 1152.36 1553.41 1201.53C1562.51 1250.69 1589.82 1563.89 1589.82 1563.89L1646.27 1565.71C1646.27 1565.71 1666.3 1285.29 1646.27 1245.23C1626.24 1205.17 1651.73 1072.24 1669.94 1030.36C1688.15 988.48 1711.82 864.661 1671.76 850.091C1631.7 835.521 1555.23 868.3 1555.23 868.3Z" fill="#F2B5BB"/>
<path fill-rule="evenodd" clip-rule="evenodd" d="M1520.63 590.61C1542.92 574.588 1620.78 578.774 1640.81 638.864C1660.84 698.954 1633.53 749.939 1653.56 789.999C1673.59 830.059 1710 861.014 1710 861.014C1710 861.014 1638.99 901.074 1549.76 888.327C1549.76 888.328 1433.23 653.431 1520.63 590.61Z" fill="#353B6E"/>
<path fill-rule="evenodd" clip-rule="evenodd" d="M1473.29 453.132C1473.29 453.132 1433.23 549.64 1471.47 547.819C1509.7 545.998 1518.81 580.595 1518.81 595.163C1518.81 595.163 1571.62 578.775 1591.65 596.984C1591.65 596.984 1606.21 403.968 1478.75 444.028L1473.29 453.132Z" fill="#FFD5C0"/>
<path fill-rule="evenodd" clip-rule="evenodd" d="M1475.11 449.489C1475.11 449.489 1518.81 454.952 1520.63 498.653C1520.63 498.653 1538.84 474.981 1544.3 495.011C1549.77 515.041 1529.74 525.966 1529.74 525.966C1529.74 525.966 1515.17 587.877 1551.59 604.266C1588.01 620.655 1615.32 635.221 1628.06 667.998C1640.81 700.775 1695.44 689.849 1710.01 709.879C1724.57 729.909 1770.1 757.223 1821.08 724.446C1872.07 691.669 1833.83 657.073 1857.5 620.654C1881.17 584.235 1881.17 569.669 1839.29 545.997C1797.41 522.325 1804.69 482.266 1768.27 462.235C1731.86 442.204 1684.51 500.474 1624.42 462.235C1564.33 423.996 1515.17 373.011 1475.11 449.489Z" fill="#F2B5BB"/>
<path fill-rule="evenodd" clip-rule="evenodd" d="M1368.6 712.242L1368.14 712.59C1368.13 712.426 1368.12 712.268 1368.11 712.104L1272.31 579.056L1247.61 593.643L1300.57 718.63C1304.71 728.465 1322.44 753.473 1332.97 755.203C1342.74 756.809 1368.18 744.381 1390.15 735.013C1411.46 725.919 1368.6 712.242 1368.6 712.242Z" fill="#FFD5C0"/>
<path fill-rule="evenodd" clip-rule="evenodd" d="M1354.71 691.334C1354.71 691.334 1303.46 720.226 1361.04 748.827C1361.04 748.827 1460.33 704.97 1515.17 666.178C1543.1 646.421 1533.94 581.841 1516.51 591.521C1407.86 651.862 1354.71 691.334 1354.71 691.334Z" fill="#FFD5C0"/>
<path fill-rule="evenodd" clip-rule="evenodd" d="M1273.23 585.934C1273.23 585.934 1270.74 561.128 1274.89 547.775C1279.03 534.422 1279.38 528.925 1279.38 528.925C1279.38 528.925 1268.07 527.479 1263.57 546.325C1263.57 546.325 1263.66 546.791 1243.04 544.389C1243.04 544.389 1235.9 567.032 1247.01 593.089C1247.01 593.093 1271.26 623.338 1273.23 585.934Z" fill="#FFD5C0"/>
<path fill-rule="evenodd" clip-rule="evenodd" d="M1516.99 591.52C1516.99 591.52 1542.3 576.865 1538.84 680.744C1537.02 735.371 1498.78 693.49 1498.78 658.893C1498.78 624.296 1516.99 591.52 1516.99 591.52Z" fill="#FFD5C0"/>
<path d="M1106.84 308.677C1106.19 290.116 1120.67 273 1140.24 273H1340.78C1360.36 273 1374.83 290.116 1374.19 308.677C1373.57 326.507 1374.37 349.604 1380.19 368.436C1386.03 387.327 1395.88 399.267 1412 400.801V418.199C1395.88 419.733 1386.03 431.673 1380.19 450.564C1374.37 469.396 1373.57 492.493 1374.19 510.323C1374.83 528.884 1360.36 546 1340.78 546H1140.24C1120.67 546 1106.19 528.884 1106.84 510.323C1107.46 492.493 1106.65 469.396 1100.83 450.564C1094.99 431.673 1085.13 419.733 1069 418.199V400.801C1085.12 399.267 1094.99 387.327 1100.83 368.436C1106.65 349.604 1107.46 326.507 1106.84 308.677V308.677Z" fill="url(#paint0_linear)"/>
<g filter="url(#filter0_d)">
<path d="M1247.94 482.071C1279.62 482.071 1298.72 466.575 1298.72 441.017C1298.72 421.697 1285.09 407.711 1264.86 405.497V404.692C1279.73 402.277 1291.39 388.492 1291.39 373.097C1291.39 351.161 1274.05 336.872 1247.63 336.872H1188.18V482.071H1247.94ZM1211.3 355.286H1242.06C1258.78 355.286 1268.27 362.732 1268.27 376.216C1268.27 390.605 1257.23 398.654 1237.2 398.654H1211.3V355.286V355.286ZM1211.3 463.657V415.861H1241.85C1263.73 415.861 1275.08 423.911 1275.08 439.608C1275.08 455.305 1264.04 463.657 1243.19 463.657H1211.3V463.657Z" fill="url(#paint1_linear)"/>
<path d="M1247.94 482.071C1279.62 482.071 1298.72 466.575 1298.72 441.017C1298.72 421.697 1285.09 407.711 1264.86 405.497V404.692C1279.73 402.277 1291.39 388.492 1291.39 373.097C1291.39 351.161 1274.05 336.872 1247.63 336.872H1188.18V482.071H1247.94ZM1211.3 355.286H1242.06C1258.78 355.286 1268.27 362.732 1268.27 376.216C1268.27 390.605 1257.23 398.654 1237.2 398.654H1211.3V355.286V355.286ZM1211.3 463.657V415.861H1241.85C1263.73 415.861 1275.08 423.911 1275.08 439.608C1275.08 455.305 1264.04 463.657 1243.19 463.657H1211.3V463.657Z" stroke="white"/>
</g>
<defs>
<filter id="filter0_d" x="1171.68" y="324.372" width="143.537" height="178.199" filterUnits="userSpaceOnUse" color-interpolation-filters="sRGB">
<feFlood flood-opacity="0" result="BackgroundImageFix"/>
<feColorMatrix in="SourceAlpha" type="matrix" values="0 0 0 0 0 0 0 0 0 0 0 0 0 0 0 0 0 0 127 0" result="hardAlpha"/>
<feOffset dy="4"/>
<feGaussianBlur stdDeviation="8"/>
<feColorMatrix type="matrix" values="0 0 0 0 0 0 0 0 0 0 0 0 0 0 0 0 0 0 0.15 0"/>
<feBlend mode="normal" in2="BackgroundImageFix" result="effect1_dropShadow"/>
<feBlend mode="normal" in="SourceGraphic" in2="effect1_dropShadow" result="shape"/>
</filter>
<linearGradient id="paint0_linear" x1="1119.97" y1="280.225" x2="1419.41" y2="518.211" gradientUnits="userSpaceOnUse">
<stop stop-color="#A68CCD"/>
<stop offset="1" stop-color="#6610F2"/>
</linearGradient>
<linearGradient id="paint1_linear" x1="1198.64" y1="346.429" x2="1265.51" y2="459.669" gradientUnits="userSpaceOnUse">
<stop stop-color="white"/>
<stop offset="1" stop-color="#F1E5FC"/>
</linearGradient>
</defs>
</svg>
