<svg width="2008" height="1560" viewBox="0 0 2008 1560" fill="none" xmlns="http://www.w3.org/2000/svg">
<path fill-rule="evenodd" clip-rule="evenodd" d="M95.1635 813.309C-71.0525 654.609 -10.3365 376.339 205.837 298.344C207.055 297.904 208.278 297.469 209.505 297.037C484.34 200.343 639.362 377.73 843.911 297.037C1017.95 228.379 1009.95 96.4456 1193.65 32.7016C1232.24 19.3096 1429.2 -47.7984 1604.38 61.1686C1628.32 76.0586 1771.9 165.369 1787.38 325.505C1805.57 513.639 1504.44 575.899 1518.98 707.775C1536.6 867.556 1956.46 862.243 2002.92 1065.64C2027.21 1171.99 1940.79 1297.52 1848.39 1358.44C1667.63 1477.62 1460.97 1351.52 1116.38 1305.58C754.35 1257.31 592.179 1470.61 355.905 1354.38C329.23 1341.25 170.45 1280.93 172.904 1203.91C175.939 1108.6 421.699 1071.02 416.905 996.51C412.818 932.956 232.787 940.593 99.7045 817.575C98.1758 816.161 96.6622 814.739 95.1635 813.309Z" fill="#EFEAF6"/>
<path fill-rule="evenodd" clip-rule="evenodd" d="M608.711 66.5898H1503.78C1539.13 66.5898 1567.78 95.2436 1567.78 130.59V808.499C1567.78 843.845 1539.13 872.499 1503.78 872.499H608.711C573.365 872.499 544.711 843.845 544.711 808.499V130.59C544.711 95.2436 573.365 66.5898 608.711 66.5898Z" fill="#404884"/>
<path fill-rule="evenodd" clip-rule="evenodd" d="M466.088 855.713C466.088 893.931 497.07 924.913 535.288 924.913H1419.95C1458.17 924.913 1489.15 893.931 1489.15 855.713V204.185H466.088V855.713Z" fill="#D5D8ED"/>
<path fill-rule="evenodd" clip-rule="evenodd" d="M1419.95 119.002H535.29C497.072 119.002 466.09 149.984 466.09 188.202V204.176H1489.16V188.211C1489.16 169.856 1481.87 152.252 1468.89 139.272C1455.91 126.292 1438.31 119.001 1419.95 119.002V119.002Z" fill="#ACB0DA"/>
<path fill-rule="evenodd" clip-rule="evenodd" d="M540.75 183.362C536.317 183.357 532.081 181.526 529.041 178.299C522.572 171.436 522.572 160.721 529.041 153.859C532.079 150.629 536.317 148.797 540.751 148.797C545.186 148.797 549.423 150.629 552.461 153.859C558.929 160.722 558.929 171.436 552.461 178.299C549.421 181.526 545.184 183.357 540.75 183.362Z" fill="white"/>
<path fill-rule="evenodd" clip-rule="evenodd" d="M586.615 183.362C582.182 183.357 577.946 181.526 574.906 178.299C568.439 171.436 568.439 160.722 574.906 153.859C577.944 150.629 582.182 148.797 586.616 148.797C591.051 148.797 595.288 150.629 598.326 153.859C604.794 160.722 604.794 171.436 598.326 178.299C595.286 181.526 591.049 183.358 586.615 183.362V183.362Z" fill="white"/>
<path fill-rule="evenodd" clip-rule="evenodd" d="M632.48 183.362C628.046 183.357 623.81 181.526 620.769 178.299C614.302 171.435 614.302 160.722 620.769 153.859C623.807 150.629 628.045 148.797 632.479 148.797C636.914 148.797 641.151 150.629 644.189 153.859C650.657 160.722 650.657 171.436 644.189 178.299C641.149 181.526 636.914 183.357 632.48 183.362V183.362Z" fill="white"/>
<rect x="524.189" y="247.429" width="290.04" height="82.362" fill="#ACB0DA"/>
<rect x="885.336" y="247.429" width="498.618" height="82.362" fill="#ACB0DA"/>
<rect x="525.999" y="594.691" width="284.763" height="18.346" fill="#ACB0DA"/>
<rect x="525.999" y="658.902" width="853.084" height="18.346" fill="#ACB0DA"/>
<rect x="525.999" y="723.112" width="853.084" height="18.346" fill="#ACB0DA"/>
<rect x="525.999" y="787.323" width="853.084" height="18.346" fill="#ACB0DA"/>
<rect x="525.999" y="395.701" width="284.763" height="18.346" fill="#ACB0DA"/>
<rect x="525.999" y="459.912" width="284.763" height="18.346" fill="#ACB0DA"/>
<rect x="525.999" y="524.122" width="284.763" height="18.346" fill="#ACB0DA"/>
<path fill-rule="evenodd" clip-rule="evenodd" d="M1574.37 884.419L1574.15 884.786C1574.1 884.675 1574.05 884.568 1574 884.458L1470.89 819.158L1457.87 836.094L1529.15 907.724C1534.74 913.366 1553.93 925.724 1561.68 923.991C1568.88 922.391 1583 906.737 1595.57 894.168C1607.77 881.965 1574.37 884.419 1574.37 884.419Z" fill="#FFD5C0"/>
<rect x="1248.64" y="658.196" width="208.757" height="242.647" transform="rotate(-17.574 1248.64 658.196)" fill="#8E6DBF"/>
<path fill-rule="evenodd" clip-rule="evenodd" d="M1604.04 702.676C1576.04 713.061 1574.02 772.405 1572.9 805.447C1571.68 841.319 1569.75 898.317 1609.67 942.027C1647.65 983.61 1719.43 1008.7 1749.65 982.147C1780.1 955.392 1756.78 886.369 1747.67 859.395C1718.3 772.483 1642.79 688.308 1604.04 702.676Z" fill="#EA858F"/>
<path fill-rule="evenodd" clip-rule="evenodd" d="M1548.62 1275.78C1548.62 1275.78 1529.82 1484.99 1516.89 1507.32C1503.96 1529.65 1542.74 1543.75 1552.15 1516.72C1561.55 1489.68 1615.62 1341.59 1595.64 1285.18C1575.65 1228.76 1548.62 1275.78 1548.62 1275.78Z" fill="#FFD5C0"/>
<path fill-rule="evenodd" clip-rule="evenodd" d="M1672.64 1278.34C1672.64 1278.34 1695.09 1487.19 1686.77 1511.62C1678.46 1536.05 1718.25 1553.42 1722.19 1525.07C1726.12 1496.73 1751.21 1329.8 1720.59 1278.37C1689.97 1226.95 1672.64 1278.34 1672.64 1278.34Z" fill="#FFD5C0"/>
<path fill-rule="evenodd" clip-rule="evenodd" d="M1561.1 1531.25L1551.52 1552.08H1542.29C1542.29 1552.08 1507.62 1551.97 1478.53 1551.97H1459.73C1459.73 1551.97 1502.63 1542.82 1514.05 1510.65H1552.61C1554.02 1512.18 1561.9 1521.13 1561.1 1531.25Z" fill="#EA858F"/>
<path fill-rule="evenodd" clip-rule="evenodd" d="M1734.48 1531.25L1726.38 1552.08H1715.67C1715.67 1552.08 1681 1551.97 1651.91 1551.97H1633.11C1633.11 1551.97 1680.78 1536.81 1687.44 1510.65H1725.99C1727.41 1512.18 1735.28 1521.13 1734.48 1531.25Z" fill="#EA858F"/>
<path fill-rule="evenodd" clip-rule="evenodd" d="M1602.64 713.08C1602.64 713.08 1568.83 768.924 1605.09 772.74C1605.09 772.74 1615.51 798.065 1592.39 833.495C1570.09 867.659 1659.3 882.851 1668.5 859.203C1677.69 835.555 1654.49 814.557 1642.93 795.165C1631.36 775.773 1637.63 764.773 1637.63 764.773C1637.63 764.773 1653.17 746.747 1635.06 748.994C1635.06 748.994 1607.29 748.128 1602.64 713.08Z" fill="#FFD5C0"/>
<path fill-rule="evenodd" clip-rule="evenodd" d="M1609.81 814.863C1602.58 818.144 1598.47 823.427 1592.49 831.673C1586.26 840.262 1580.73 854.799 1577.92 866.611C1572.45 889.566 1602.13 946.344 1596.25 963.975C1590.38 981.606 1561.55 1083.02 1538.04 1279.3C1538.04 1279.3 1632.07 1331.02 1727.27 1281.65C1727.27 1281.65 1734.46 1045.35 1672.16 957.196C1672.16 957.196 1682.5 892.415 1677.59 855.528C1672.47 817.179 1628.88 806.209 1609.81 814.863Z" fill="#404892"/>
<path fill-rule="evenodd" clip-rule="evenodd" d="M1531.67 946.096L1531.45 946.463C1531.4 946.352 1531.35 946.245 1531.3 946.135L1428.19 880.835L1415.17 897.772L1486.45 969.401C1492.04 975.043 1511.23 987.401 1518.98 985.668C1526.18 984.068 1540.3 968.414 1552.87 955.845C1565.07 943.642 1531.67 946.096 1531.67 946.096Z" fill="#FFD5C0"/>
<path fill-rule="evenodd" clip-rule="evenodd" d="M1516.27 935.509C1516.27 935.509 1488.9 969.694 1536.61 973.465C1536.61 973.465 1604.38 902.976 1631.5 860.954C1645.3 839.554 1609.67 810.117 1600.32 821.642C1542.03 893.487 1516.27 935.509 1516.27 935.509Z" fill="#FFD5C0"/>
<path fill-rule="evenodd" clip-rule="evenodd" d="M1634.21 848.753C1635.11 877.671 1630.14 936.865 1593.54 909.753C1556.94 882.641 1634.21 848.753 1634.21 848.753Z" fill="#FFD5C0"/>
<path fill-rule="evenodd" clip-rule="evenodd" d="M1636.47 768.774C1630.14 798.597 1634.21 821.641 1647.77 841.974C1661.33 862.307 1650.48 888.063 1640.99 911.108C1631.5 934.153 1644.15 991.989 1701.54 992.893C1758.92 993.797 1748.08 866.374 1722.32 837.907C1696.57 809.44 1636.47 768.774 1636.47 768.774Z" fill="#EA858F"/>
<path fill-rule="evenodd" clip-rule="evenodd" d="M1430.73 885.333C1430.73 885.333 1422.12 868.89 1421.28 858.516C1420.44 848.142 1419.15 844.249 1419.15 844.249C1419.15 844.249 1410.93 846.392 1413.06 860.66C1413.06 860.66 1413.25 860.96 1398.34 865.025C1400.04 877.363 1405.76 888.798 1414.61 897.559C1414.61 897.559 1439.75 911.713 1430.73 885.333Z" fill="#FFD5C0"/>
<path fill-rule="evenodd" clip-rule="evenodd" d="M734.597 764.571L726.477 901.619L725.433 919.241L720.282 1006L719.238 1023.62L714.1 1110.38L713.056 1128L707.905 1214.75L706.861 1232.38L701.723 1319.13L700.679 1336.75L695.528 1423.51L694.484 1441.13L687.503 1558.89L669.903 1557.85L689.193 1232.37L690.25 1214.75L695.388 1128L696.432 1110.37L701.57 1023.62L702.627 1006L707.765 919.239L708.809 901.617L716.997 763.525L734.597 764.571Z" fill="#404892"/>
<path fill-rule="evenodd" clip-rule="evenodd" d="M948.098 1558.41L931.845 1559.09L927.073 1441.14L926.354 1423.52L922.843 1336.76L922.143 1319.14L918.632 1232.38L917.914 1214.76L914.403 1128.01L913.703 1110.38L910.192 1023.63L909.473 1006.01L905.962 919.251L905.262 901.629L899.691 764.029L915.944 763.351L921.544 901.632L922.244 919.254L948.098 1558.41Z" fill="#404892"/>
<rect x="688.02" y="1423.51" width="249.424" height="17.622" fill="#404892"/>
<rect x="688.02" y="1319.13" width="237.224" height="17.622" fill="#404892"/>
<path fill-rule="evenodd" clip-rule="evenodd" d="M690.257 1214.76H925.244V1232.38H689.199L690.257 1214.76Z" fill="#404892"/>
<path fill-rule="evenodd" clip-rule="evenodd" d="M925.248 1110.38V1128H695.394L696.438 1110.38H925.248Z" fill="#404892"/>
<path fill-rule="evenodd" clip-rule="evenodd" d="M925.244 1006V1023.62H701.575L702.632 1006H925.244Z" fill="#404892"/>
<path fill-rule="evenodd" clip-rule="evenodd" d="M922.236 919.243H707.771L708.815 901.621H921.531L922.236 919.243Z" fill="#404892"/>
<rect x="979.471" y="292.646" width="10.8353" height="119.736" rx="3.997" transform="rotate(-29.8728 979.471 292.646)" fill="#AC7DFD"/>
<rect x="977.592" y="293.727" width="10.837" height="119.754" rx="3.997" transform="rotate(-29.876 977.592 293.727)" fill="#E15563"/>
<path fill-rule="evenodd" clip-rule="evenodd" d="M1002.67 324.055C1022.98 312.389 1029.57 285.752 1017.4 264.56C1005.22 243.367 978.893 235.645 958.586 247.311C938.279 258.977 931.686 285.613 943.86 306.806C956.034 327.998 982.366 335.721 1002.67 324.055Z" fill="#AC7DFD"/>
<path fill-rule="evenodd" clip-rule="evenodd" d="M999.232 318.067C1016.37 308.221 1021.93 285.742 1011.66 267.857C1001.39 249.971 979.163 243.454 962.025 253.299C944.887 263.144 939.323 285.624 949.598 303.509C959.872 321.394 982.094 327.912 999.232 318.067Z" fill="#FAFCFB"/>
<path fill-rule="evenodd" clip-rule="evenodd" d="M954.553 302.561C953.874 302.561 953.246 302.198 952.906 301.609C948.505 294.047 947.209 285.073 949.293 276.576C951.286 268.241 956.624 261.096 964.051 256.823C964.642 256.435 965.398 256.407 966.015 256.75C966.632 257.092 967.009 257.748 966.993 258.454C966.977 259.16 966.571 259.798 965.939 260.113C959.412 263.873 954.723 270.157 952.975 277.485C951.128 285.032 952.283 293.002 956.196 299.716C956.531 300.303 956.529 301.023 956.191 301.608C955.852 302.193 955.229 302.554 954.553 302.557V302.561Z" fill="#AC7DFD"/>
<path fill-rule="evenodd" clip-rule="evenodd" d="M740.849 1180.32L791.765 1215.74H691.039V1179.22C691.039 1179.22 707.643 1144.9 740.849 1180.32Z" fill="#404884"/>
<path fill-rule="evenodd" clip-rule="evenodd" d="M927.912 1180.32L978.829 1215.74H878.103V1179.22C878.103 1179.22 894.706 1144.9 927.912 1180.32Z" fill="#404884"/>
<path fill-rule="evenodd" clip-rule="evenodd" d="M829.059 724.993C829.059 724.993 825.959 921.541 796.323 965.73C758.56 1022.04 749.705 1111.7 740.423 1180.32L680.416 1179.47C680.416 1179.47 669.689 1038.94 718.716 968.91C726.464 957.842 734.251 862.962 729.872 840.595C725.493 818.228 702.024 772.209 736.384 691.427C770.744 610.645 829.059 724.993 829.059 724.993Z" fill="#E15563"/>
<path fill-rule="evenodd" clip-rule="evenodd" d="M864.82 701.045C864.82 701.045 913.839 909.816 907.99 940.126C895.814 1003.22 920.166 1117.23 926.807 1179.21H863.714C863.714 1179.21 811.56 1051.16 841.576 971.118C851.538 944.553 817.225 861.536 806.156 841.618C795.087 821.7 758.56 785.168 766.309 697.726C774.058 610.284 864.82 701.045 864.82 701.045Z" fill="#EA858F"/>
<path fill-rule="evenodd" clip-rule="evenodd" d="M943.345 474.441L994.37 372.868L1019.7 336.421C1020.8 335.048 1022.46 334.25 1024.21 334.255C1025.96 334.26 1027.62 335.067 1028.7 336.445L1042.87 354.47C1043.82 355.682 1044.24 357.227 1044.04 358.755C1043.84 360.284 1043.04 361.668 1041.81 362.595L1017.04 381.253L977.33 509.221V509.221C964.941 518.774 946.677 512.583 942.923 497.395C941.471 491.523 941.3 484.02 943.345 474.441Z" fill="#FFD5C0"/>
<path fill-rule="evenodd" clip-rule="evenodd" d="M847.692 471.974L951.001 456.994L975.942 506.836L809.722 557.27L847.692 471.974Z" fill="#404884"/>
<path fill-rule="evenodd" clip-rule="evenodd" d="M702.115 495.168L596.956 588.143C592.228 594.511 591.856 622.643 598.699 626.653L736.423 681.121V645.701L663.369 600.318L684.894 582.155C705.73 559.929 714.924 534.715 705.294 505.815L702.115 495.168Z" fill="#FFD5C0"/>
<path fill-rule="evenodd" clip-rule="evenodd" d="M697.683 482.99L596.956 588.143C592.228 594.511 591.856 622.643 598.699 626.653L663.369 600.318L689.934 583.718C710.769 561.494 714.924 534.718 705.29 505.818L697.683 482.99Z" fill="#404884"/>
<path fill-rule="evenodd" clip-rule="evenodd" d="M813.216 359.538C813.216 359.538 841.644 419.946 826.245 428.238C810.846 436.53 799.001 436.53 799.001 436.53L803.74 483.91C803.74 483.91 762.283 501.677 750.44 476.802C750.44 476.802 767.023 449.56 769.392 429.424C769.39 429.423 731.486 364.276 813.216 359.538Z" fill="#FFD5C0"/>
<path fill-rule="evenodd" clip-rule="evenodd" d="M801.372 396.255C801.372 396.255 791.897 389.003 791.897 393.886C791.897 399.809 791.897 410.469 801.372 411.653C801.372 411.653 788.343 435.343 758.731 425.868C729.119 416.393 729.118 382.042 755.177 361.906C781.236 341.77 808.477 327.556 825.062 364.275C825.06 364.275 797.819 382.042 801.372 396.255Z" fill="#EA858F"/>
<path fill-rule="evenodd" clip-rule="evenodd" d="M680.524 516.787C681.485 492.322 701.617 472.993 726.102 473.028H847.111C860.393 473.028 837.149 577.075 848.217 632.418C859.285 687.761 868.141 714.327 868.141 714.327L725.353 716.541C725.353 716.541 677.802 590.667 680.524 516.787Z" fill="#404892"/>
<path fill-rule="evenodd" clip-rule="evenodd" d="M663.368 600.319L604.15 580.212C604.15 580.212 589.208 585.93 594.189 596.446C594.189 596.446 585.889 604.378 593.636 610.646C593.636 610.646 588.101 620.239 599.169 626.88L667.427 602.714C667.427 602.714 665.582 599.213 663.368 600.319Z" fill="#808BD1"/>
<path fill-rule="evenodd" clip-rule="evenodd" d="M951.336 456.216C951.336 456.216 946.627 452.429 944.736 457.635C944.736 457.635 941.046 454.277 937.004 458.879L946.784 516.16C946.784 516.16 954.513 520.62 957.094 514.501C957.094 514.501 962.783 518.101 964.504 514.022C964.504 514.022 976.853 513.222 977.554 508.714C977.55 508.714 953.021 451.519 951.336 456.216Z" fill="#808BD1"/>
</svg>
