<svg width="1986" height="1605" viewBox="0 0 1986 1605" fill="none" xmlns="http://www.w3.org/2000/svg">
<path fill-rule="evenodd" clip-rule="evenodd" d="M1982.6 1563.97H1185.83C1116.38 1520.53 1091.65 1431.21 1128.88 1358.24C1166.11 1285.27 1252.93 1252.87 1328.87 1283.6C1352.09 1251.64 1387.74 1230.98 1427.01 1226.73C1466.29 1222.48 1505.53 1235.04 1535.05 1261.3C1571.54 1182.72 1663.31 1146.65 1743.55 1179.33C1823.78 1212.01 1864.22 1301.94 1835.43 1383.65C1880.31 1384.33 1922.6 1404.79 1950.98 1439.56C1979.36 1474.34 1990.93 1519.87 1982.6 1563.97V1563.97Z" fill="#EFEAF6"/>
<path fill-rule="evenodd" clip-rule="evenodd" d="M915.642 515.394L821.21 1444.49L1113.87 1413.8L1002.51 505.663L915.642 515.394Z" fill="#EFEAF6"/>
<path fill-rule="evenodd" clip-rule="evenodd" d="M1263.41 1501.49C1276.33 1465.95 1269.37 1426.21 1245.13 1397.18C1263.07 1381.22 1271.99 1357.43 1268.99 1333.6C1265.98 1309.77 1251.42 1288.96 1230.07 1277.95C1258.64 1245.84 1265.15 1199.73 1246.6 1160.97C1228.05 1122.2 1188.05 1098.35 1145.12 1100.46C1102.2 1102.56 1064.73 1130.21 1050.06 1170.61C1047.87 1176.68 1046.22 1182.93 1045.14 1189.3C991.567 1160.76 925.028 1179.29 893.913 1231.41C862.799 1283.52 878.061 1350.89 928.6 1384.5C907.282 1402.18 894.431 1428.04 893.221 1455.71C892.011 1483.37 902.555 1510.26 922.248 1529.73C915.956 1540.33 911.477 1551.9 908.998 1563.97H1202.64C1230.92 1552.83 1253.05 1530.07 1263.41 1501.49Z" fill="#EFEAF6"/>
<path fill-rule="evenodd" clip-rule="evenodd" d="M840.515 1243.43C846.069 1235.22 850.351 1226.22 853.215 1216.73C867.435 1169.91 845.299 1121.73 803.772 1109.14C766.194 1097.73 725.622 1119.39 707.724 1158.31C672.775 1157.22 638.812 1182.61 626.938 1221.71C617.286 1253.52 624.838 1285.94 643.938 1306.91C626.938 1313.38 612.471 1328.48 606.33 1348.74C596.42 1381.37 611.852 1414.94 640.778 1423.72C643.297 1424.47 645.874 1425.01 648.483 1425.34C648.412 1425.55 648.319 1425.76 648.257 1425.99C637.587 1461.1 654.194 1497.23 685.333 1506.68C716.472 1516.13 750.366 1495.33 761.019 1460.22C762.893 1454.05 763.955 1447.66 764.179 1441.22C764.979 1441.49 765.751 1441.77 766.541 1442.01C816.341 1457.13 870.535 1423.86 887.587 1367.69C903.177 1316.32 882.284 1263.62 840.515 1243.43Z" fill="#EFEAF6"/>
<path fill-rule="evenodd" clip-rule="evenodd" d="M882.957 1405.51C881.416 1348.49 849.262 1296.72 798.827 1270.06C748.391 1243.4 687.504 1246 639.519 1276.85C639.51 1276.24 639.527 1275.64 639.51 1275.03C637.679 1206.56 590.154 1147.84 523.578 1131.78C457.002 1115.71 387.927 1146.3 355.077 1206.4C324.5 1190.93 288.264 1191.51 258.205 1207.97C228.146 1224.42 208.123 1254.63 204.677 1288.72C130.325 1261.45 47.4836 1295.74 14.1585 1367.59C-19.1666 1439.43 8.15724 1524.82 76.9976 1563.97H759.245C833.1 1547.58 884.973 1481.14 882.957 1405.51Z" fill="#EFEAF6"/>
<path fill-rule="evenodd" clip-rule="evenodd" d="M932.985 522.575L856.841 1358.62L1064.99 1327.69L990.83 513.854L932.985 522.575Z" fill="white"/>
<path fill-rule="evenodd" clip-rule="evenodd" d="M1850.9 1563.97H64.8736C64.4724 1516.27 86.4595 1471.14 124.27 1442.05C162.081 1412.97 211.342 1403.29 257.345 1415.91C261.455 1417.04 265.496 1418.33 269.466 1419.79C272.909 1385.7 292.931 1355.49 322.991 1339.03C353.051 1322.58 389.289 1321.99 419.866 1337.47C443.486 1294.25 486.638 1265.21 535.569 1259.6C584.499 1253.99 633.103 1272.52 665.89 1309.27C675.026 1289.78 690.721 1274.7 710.002 1267.95C712.683 1225.18 742.739 1190.38 781.91 1187.5C825.192 1184.3 863.186 1221.27 866.771 1270.07C867.518 1279.96 866.767 1289.9 864.542 1299.56C875.433 1300.49 886.049 1303.48 895.829 1308.36C927.809 1258.41 992.827 1241.44 1045.14 1269.39C1046.22 1263.03 1047.87 1256.77 1050.06 1250.7C1070.42 1195.66 1131.42 1167.39 1186.57 1187.43C1241.73 1207.48 1270.35 1268.3 1250.63 1323.58C1250.42 1324.14 1250.18 1324.7 1249.97 1325.27C1284.3 1319 1319.74 1324.33 1350.71 1340.42C1359.45 1344.96 1367.76 1350.3 1375.51 1356.37C1406.67 1332.08 1446.64 1322.1 1485.56 1328.89C1524.48 1335.68 1558.71 1358.6 1579.8 1392C1600.23 1368.53 1626.98 1351.42 1656.86 1342.72C1658.82 1342.15 1660.77 1341.62 1662.75 1341.13C1722.87 1326.02 1786.35 1346.48 1826.35 1393.84C1866.34 1441.21 1875.87 1507.22 1850.9 1563.96V1563.97Z" fill="white"/>
<path fill-rule="evenodd" clip-rule="evenodd" d="M422.143 1570.71H521.174C521.174 1570.71 537.088 1524.74 528.244 1507.94L494.769 1505.29C493.362 1512.85 486.426 1539.52 458.389 1543.31C425.684 1547.73 422.143 1570.71 422.143 1570.71Z" fill="#353B6E"/>
<path fill-rule="evenodd" clip-rule="evenodd" d="M780.91 1570.71H681.879C681.879 1570.71 665.964 1524.74 674.809 1507.94L708.284 1505.29C709.691 1512.84 716.627 1539.52 744.664 1543.31C777.369 1547.73 780.91 1570.71 780.91 1570.71Z" fill="#353B6E"/>
<path fill-rule="evenodd" clip-rule="evenodd" d="M482.596 914.67C482.596 914.67 463.985 1194.87 465.018 1264.15C466.051 1333.43 468.118 1526.77 468.118 1526.77H552.902C552.902 1526.77 534.291 1324.12 535.325 1271.39C536.359 1218.66 571.513 1007.73 571.513 1007.73C571.513 1007.73 619.075 1218.66 626.313 1252.78C633.551 1286.9 657.332 1521.6 657.332 1521.6H726.607C726.607 1521.6 710.754 1263.46 701.448 1208.66C692.142 1153.86 653.198 908.47 653.198 908.47L482.596 914.67Z" fill="#E3616E"/>
<path fill-rule="evenodd" clip-rule="evenodd" d="M559.212 833.084L546.257 887.749C546.257 887.749 397.967 873.708 378.291 847.332C373.591 841.025 376.481 827.583 383.626 810.761C402.785 765.598 447.876 692.301 462.951 671.694C465.877 667.703 475.11 669.12 480.063 668.851C572.405 663.981 450.626 805.891 446.428 810.761C446.355 810.844 446.314 810.885 446.314 810.885L559.212 833.084Z" fill="#404884"/>
<path fill-rule="evenodd" clip-rule="evenodd" d="M749.511 870.844C749.023 871.793 748.478 872.712 747.878 873.594C741.653 882.755 728.202 889.6 699.241 879.157C642.694 858.747 606.33 815.757 606.33 815.757L630.793 784.397L687.66 819.897L687.37 819.463L649.755 763.381C649.755 763.381 629.51 692.535 670.775 671.7C680.236 666.933 698.206 709.708 750.586 847.141C753.604 854.837 753.214 863.453 749.511 870.844V870.844Z" fill="#404884"/>
<path fill-rule="evenodd" clip-rule="evenodd" d="M462.952 671.694C464.503 667.041 510.622 650.727 559.11 654.117C608.396 657.563 676.636 667.903 675.947 672.728C672.237 698.694 655.268 865.043 653.2 908.469C653.2 908.469 567.382 957.069 482.6 914.669L462.952 671.694Z" fill="#353B6E"/>
<path fill-rule="evenodd" clip-rule="evenodd" d="M601.604 573.288C601.604 573.288 605.623 555.37 602.904 550.162C600.185 544.954 598.249 537.562 586.649 536.108C575.049 534.654 562.349 540.378 552.339 549.839C542.329 559.3 515.995 566.007 527.716 595.919C539.437 625.831 564.416 620.45 565.251 630.866L579.145 608.133L601.604 573.288Z" fill="#423565"/>
<path fill-rule="evenodd" clip-rule="evenodd" d="M600.634 567.515C600.634 567.515 638.453 619.915 602.044 628.058C579.48 633.106 566.217 619.127 566.217 619.127C566.217 619.127 559.334 624.018 553.366 608.727C549.82 599.641 559.796 590.927 565.014 605.269C565.014 605.269 574.173 605.137 571.799 592.247C569.425 579.357 576.052 577.816 583.736 577.714C591.42 577.612 600.771 571.626 600.634 567.515Z" fill="#FFD5C0"/>
<path fill-rule="evenodd" clip-rule="evenodd" d="M544.117 641.193L588.749 646.535C588.749 646.535 581.512 675.916 564.279 672.035C547.046 668.154 544.117 641.193 544.117 641.193Z" fill="#353B6E"/>
<path fill-rule="evenodd" clip-rule="evenodd" d="M562.047 606.156C562.047 606.156 558.092 632.856 550.041 644.856C550.041 644.856 535.564 669.84 562.211 672.72C587.711 675.478 580.553 658.84 581.118 656.58C581.683 654.32 592.418 624.091 592.418 624.091C592.418 624.091 592.7 594.719 562.047 606.156Z" fill="#FFD5C0"/>
<path fill-rule="evenodd" clip-rule="evenodd" d="M544.117 641.193L565.83 672.901L551.872 692.719L529.987 653.256L544.117 641.193Z" fill="#404884"/>
<path fill-rule="evenodd" clip-rule="evenodd" d="M565.83 672.9L588.749 646.534L596.331 657.218L583.751 697.718L565.83 672.9Z" fill="#404884"/>
<path fill-rule="evenodd" clip-rule="evenodd" d="M569.103 847.639V814.553H583.923V848.329L569.103 847.639Z" fill="#CDE2FF"/>
<path fill-rule="evenodd" clip-rule="evenodd" d="M577.029 819.032C584.453 819.032 590.47 813.014 590.47 805.591C590.47 798.168 584.453 792.15 577.029 792.15C569.606 792.15 563.588 798.168 563.588 805.591C563.588 813.014 569.606 819.032 577.029 819.032Z" fill="#E3616E"/>
<rect x="538.773" y="841.78" width="78.925" height="20.679" fill="#A68CCD"/>
<path fill-rule="evenodd" clip-rule="evenodd" d="M514.821 837.127L538.946 840.487C538.946 840.487 553.421 830.147 556.523 831.957C559.625 833.767 574.1 836.351 575.134 835.576C575.134 835.576 575.909 842.039 566.862 842.039C557.815 842.039 538.773 841.78 538.773 841.78V862.459H588.573C588.573 862.459 578.75 874.091 569.445 875.383C560.14 876.675 532.74 868.146 532.74 868.146L501.204 864.269C501.204 864.269 481.214 833.25 514.821 837.127Z" fill="#FFD5C0"/>
<path fill-rule="evenodd" clip-rule="evenodd" d="M535.672 829.889L522.23 878.829C522.23 878.829 397.966 873.708 378.291 847.329C373.591 841.022 376.481 827.58 383.626 810.758H446.426C446.353 810.841 446.312 810.882 446.312 810.882L535.672 829.889Z" fill="#404884"/>
<path fill-rule="evenodd" clip-rule="evenodd" d="M642.083 793.959L606.199 769.289C602.827 766.971 598.455 766.689 594.813 768.555L569.448 781.555L555.49 808.696L568.673 824.464C568.673 824.464 572.55 821.364 567.898 816.192C563.246 811.02 563.246 808.692 563.246 808.692L572.034 790.598L588.834 794.475L584.181 808.95C584.181 808.95 570.481 815.412 572.549 820.065L593.487 814.895L603.31 797.576L628.9 815.153C628.9 815.153 661.47 820.067 642.083 793.959Z" fill="#FFD5C0"/>
<path fill-rule="evenodd" clip-rule="evenodd" d="M747.877 873.595C741.652 882.756 727.246 891.942 699.24 879.158C643.031 853.498 617.354 830.924 617.354 830.924L630.792 784.395L687.659 819.895L687.369 819.461L747.877 873.595Z" fill="#404884"/>
<path fill-rule="evenodd" clip-rule="evenodd" d="M1353.41 715.328C1353.41 715.328 1260.7 760.804 1312.16 809.101C1328.73 822.85 1378.44 820.029 1378.44 820.029L1373.15 730.134L1353.41 715.328Z" fill="#353B6E"/>
<path fill-rule="evenodd" clip-rule="evenodd" d="M1387.98 723.437C1387.98 723.437 1487.39 762.214 1435.92 810.511C1419.35 824.26 1369.65 821.439 1369.65 821.439L1374.93 731.544L1387.98 723.437Z" fill="#353B6E"/>
<path fill-rule="evenodd" clip-rule="evenodd" d="M1347.72 736.48C1347.72 736.48 1338.55 803.46 1377.68 803.46C1416.81 803.46 1410.12 735.422 1410.12 735.422L1347.72 736.48Z" fill="#FFD5C0"/>
<rect x="1361.92" y="786.186" width="33.49" height="75.441" rx="12" fill="#FFD5C0"/>
<path fill-rule="evenodd" clip-rule="evenodd" d="M1384.61 1216.62C1445.06 1216.62 1494.07 1183.71 1494.07 1143.12C1494.07 1102.53 1445.06 1069.62 1384.61 1069.62C1324.16 1069.62 1275.15 1102.53 1275.15 1143.12C1275.15 1183.71 1324.16 1216.62 1384.61 1216.62Z" fill="#E3616E"/>
<path fill-rule="evenodd" clip-rule="evenodd" d="M1326.97 1329.78L1329.09 1400.29C1329.09 1400.29 1321.33 1446.12 1334.73 1458.81C1348.12 1471.5 1360.81 1402.41 1360.81 1402.41L1362.93 1323.44L1326.97 1329.78Z" fill="#FFD5C0"/>
<path fill-rule="evenodd" clip-rule="evenodd" d="M1374.56 1329.78L1376.68 1400.29C1376.68 1400.29 1368.92 1446.12 1382.32 1458.81C1395.71 1471.5 1408.4 1402.41 1408.4 1402.41L1410.52 1323.44L1374.56 1329.78Z" fill="#FFD5C0"/>
<path fill-rule="evenodd" clip-rule="evenodd" d="M1388.31 1102.4C1527.91 1105.3 1487.72 1355.9 1487.72 1355.9C1487.72 1355.9 1409.46 1364.12 1361.87 1365.57C1314.28 1367.02 1268.8 1358.8 1268.8 1358.8C1268.8 1358.8 1258.24 1099.7 1388.31 1102.4Z" fill="#E3616E"/>
<path fill-rule="evenodd" clip-rule="evenodd" d="M1710.52 1098.45V1077.02H1657.78C1601.92 1065.53 1507.6 1057.98 1400.65 1057.98C1293.7 1057.98 1199.38 1065.53 1143.52 1077.02H1090.07V1102.05H1090.14C1092.84 1125.67 1230.81 1144.71 1400.65 1144.71C1572.18 1144.71 1711.23 1125.29 1711.23 1101.35C1711.21 1100.34 1710.97 1099.35 1710.52 1098.45V1098.45Z" fill="#353B6E"/>
<path fill-rule="evenodd" clip-rule="evenodd" d="M1400.65 1120.38C1572.18 1120.38 1711.23 1100.97 1711.23 1077.02C1711.23 1053.07 1572.18 1033.66 1400.65 1033.66C1229.12 1033.66 1090.07 1053.07 1090.07 1077.02C1090.07 1100.97 1229.12 1120.38 1400.65 1120.38Z" fill="#A68CCD"/>
<path fill-rule="evenodd" clip-rule="evenodd" d="M1287.84 849.642C1287.84 849.642 1224.74 1001.58 1219.8 1022.03C1215.17 1041.22 1210.64 1055.87 1269.51 1055.87H1331.91V1020.97L1266.69 1012.51L1298.07 926.14C1298.07 926.14 1343.19 844.706 1287.84 849.642Z" fill="#FFD5C0"/>
<path fill-rule="evenodd" clip-rule="evenodd" d="M1481.36 849.642C1481.36 849.642 1544.46 1001.58 1549.4 1022.03C1554.03 1041.22 1558.57 1055.87 1499.69 1055.87H1437.29V1020.97L1502.51 1012.51L1471.14 926.14C1471.14 926.14 1426.02 844.706 1481.36 849.642Z" fill="#FFD5C0"/>
<path fill-rule="evenodd" clip-rule="evenodd" d="M1287.84 849.641L1212.4 963.86L1275.86 989.242L1293.48 942.003C1293.48 942.003 1321.33 846.116 1287.84 849.641Z" fill="#E3616E"/>
<path fill-rule="evenodd" clip-rule="evenodd" d="M1480.98 848.848L1556.42 963.067L1492.97 988.449L1475.34 941.21C1475.34 941.21 1447.49 845.323 1480.98 848.848Z" fill="#E3616E"/>
<path fill-rule="evenodd" clip-rule="evenodd" d="M1480.88 848.933C1480.88 854.581 1457.7 1053.41 1457.7 1053.41H1306.36C1306.36 1053.41 1281.13 860.926 1287.95 849.641C1291.63 843.549 1313.31 839.002 1332.48 836.104C1348.78 833.629 1363.28 832.371 1363.28 832.371L1392.94 832.72C1392.94 832.72 1410.81 834.867 1430.45 837.754C1454.36 841.255 1480.88 845.834 1480.88 848.933Z" fill="#E3616E"/>
<rect x="1296.3" y="927.902" width="170.8" height="137.486" fill="#DDDDDD"/>
<rect x="1296.3" y="1065.39" width="170.8" height="6.081" fill="#AFAFAF"/>
<path fill-rule="evenodd" clip-rule="evenodd" d="M1433.52 838.185C1433.52 838.185 1417.92 887.185 1380.38 887.185C1342.84 887.185 1329.09 836.774 1329.09 836.774C1329.45 836.129 1362.66 831.75 1362.66 831.75L1394.66 831.574L1433.52 838.185Z" fill="#FFD5C0"/>
<path fill-rule="evenodd" clip-rule="evenodd" d="M1346.39 747.786C1346.39 747.786 1394.05 762.397 1417.84 743.359C1439.19 726.272 1409.5 700.666 1359.61 713.559C1344.77 717.397 1332.21 727.666 1326.27 741.798C1320.62 755.223 1321.01 771.554 1347.24 781.247C1347.24 781.25 1343.36 773.141 1346.39 747.786Z" fill="#353B6E"/>
<path fill-rule="evenodd" clip-rule="evenodd" d="M1327.93 1438.88C1327.93 1438.88 1277.3 1456.82 1275.19 1469.47C1273.08 1482.13 1354.3 1468.42 1354.3 1468.42C1354.3 1468.42 1359.58 1417.79 1327.93 1438.88Z" fill="#404884"/>
<path fill-rule="evenodd" clip-rule="evenodd" d="M1397.42 1438.88C1397.42 1438.88 1448.05 1456.82 1450.16 1469.47C1452.27 1482.13 1371.05 1468.42 1371.05 1468.42C1371.05 1468.42 1365.77 1417.79 1397.42 1438.88Z" fill="#404884"/>
<path fill-rule="evenodd" clip-rule="evenodd" d="M886.819 1595.97C886.556 1596.94 886.272 1597.9 885.978 1598.87C870.219 1600.71 854.835 1602.47 839.826 1604.15C839.826 1601.47 839.689 1598.73 839.437 1595.97H223.714C211.109 1558.84 225.333 1541.14 225.333 1541.14C236.004 1527.86 255.453 1526.59 265.419 1526.71C259.03 1500.96 256.312 1474.43 257.345 1447.91C261.151 1358.6 310.351 1295.7 356.819 1289.39C385.267 1285.52 418.688 1302.05 447.871 1332.88C468.193 1354.36 486.454 1382.77 499.532 1416.07C536.032 1364.24 600.172 1340.04 659.886 1355.13C713.691 1368.73 755.806 1412.19 768.927 1467.37C775.427 1465.88 817.108 1456.99 852.305 1483.42C884.874 1507.86 898.86 1552.72 886.819 1595.97Z" fill="#ACB0DA"/>
<path fill-rule="evenodd" clip-rule="evenodd" d="M1904.6 1533.63C1903.3 1554.37 1902.46 1567.78 1900.39 1577.38C1896.39 1553.5 1885.3 1530.66 1866.29 1517.83C1863.88 1516.2 1861.36 1514.74 1858.74 1513.46C1861.77 1541.62 1857.34 1570.07 1845.9 1595.97H1307.31C1275.65 1579.74 1254.93 1560.39 1250.77 1538.23C1244.89 1506.91 1270.67 1462.52 1304.49 1440.01C1342.37 1414.81 1385.77 1420.09 1402.72 1423.13C1406.63 1400.67 1415.92 1379.49 1429.81 1361.41C1448.26 1337.16 1474.44 1319.95 1504.02 1312.61C1560.06 1299 1620.1 1324.11 1651.86 1374.72C1653.28 1377 1654.66 1379.31 1655.96 1381.68C1656.53 1378.76 1657.12 1375.91 1657.75 1373.14C1674.77 1297.22 1711.6 1277.32 1743.29 1278.14C1778.94 1279.06 1824.23 1313.37 1824.79 1421.59C1860.36 1394.15 1877.18 1398.87 1883.12 1401.64C1912.06 1415.11 1907.55 1486.82 1904.6 1533.63Z" fill="#ACB0DA"/>
<path fill-rule="evenodd" clip-rule="evenodd" d="M1049.92 536.712L1041.34 536.862L1032.41 503.602V503.602L1029.03 491L911.946 493.047L908.663 505.766L967.793 504.732L908.664 505.767L900.001 539.333L891.421 539.483C889.545 539.516 887.828 540.548 886.918 542.192C886.008 543.835 886.044 545.839 887.01 547.45C887.977 549.06 889.729 550.032 891.605 549.999L1050.1 547.229C1051.97 547.196 1053.69 546.164 1054.6 544.52C1055.51 542.877 1055.48 540.873 1054.51 539.262C1053.54 537.652 1051.79 536.68 1049.91 536.713L1049.92 536.712Z" fill="#A68CCD"/>
<path fill-rule="evenodd" clip-rule="evenodd" d="M969.689 492.502V492.502L884.234 493.996C877.726 494.111 871.439 491.632 866.757 487.106C862.075 482.58 859.382 476.377 859.27 469.863L854.293 295.775C853.496 250.13 867.224 142.724 892.128 104.473L962.9 103.237V103.237V103.237L1033.68 102L1033.69 102.004C1059.9 139.357 1076.67 237.012 1077.46 282.648L1079.26 466.018C1079.37 472.532 1076.89 478.824 1072.37 483.51C1067.85 488.196 1061.65 490.892 1055.15 491.005L969.689 492.5V492.502Z" fill="#FBFAFF"/>
<mask id="mask0" style="mask-type:alpha" maskUnits="userSpaceOnUse" x="853" y="101" width="227" height="393">
<path fill-rule="evenodd" clip-rule="evenodd" d="M969.76 491.948V491.948L884.008 493.442C877.478 493.556 871.169 491.079 866.471 486.555C861.773 482.032 859.07 475.833 858.958 469.322L853.963 295.332C853.164 249.713 866.94 142.368 891.93 104.139L962.947 102.904V102.904V102.904L1033.97 101.667L1033.98 101.671C1060.28 139.003 1077.11 236.603 1077.91 282.213L1079.71 465.48C1079.82 471.99 1077.34 478.278 1072.8 482.961C1068.26 487.645 1062.04 490.339 1055.51 490.452L969.76 491.946V491.948Z" fill="white"/>
</mask>
<g mask="url(#mask0)">
<path fill-rule="evenodd" clip-rule="evenodd" d="M1006.16 92.3466C1008.13 92.4135 1009.36 95.9572 1010.89 98.573C1025.32 123.332 1037.81 149.532 1044.29 177.564C1056.75 231.43 1054.48 287.921 1054.79 342.664C1054.99 392.504 1056.68 441.835 1054.25 493.445C1054.25 493.445 1054.49 494.998 1053.6 495.691C1052.71 496.386 1051.29 496.247 1051.11 494.403C1054.5 426.357 1051.9 359.003 1051.22 287.651C1050.65 235.914 1048.19 182.706 1026.65 135.212C1020.32 121.259 1012.86 107.865 1005.01 94.6604C1005 94.6591 1004.32 92.8146 1006.16 92.3466ZM1058.35 467.099C1059.49 466.464 1061.11 467.186 1061.05 468.482C1060.94 470.688 1054.81 469.128 1058.35 467.099H1058.35ZM1059.22 441.657C1060.66 440.833 1062.63 443.729 1060.61 444.888C1059.05 445.783 1057.37 442.745 1059.22 441.659V441.657ZM1058.04 408.313C1059.75 407.338 1061.49 410.053 1059.79 411.2C1058.34 412.175 1056.28 409.329 1058.03 408.315L1058.04 408.313ZM874.919 408.313C876.632 407.338 878.376 410.053 876.675 411.2C875.226 412.175 873.16 409.329 874.919 408.315L874.919 408.313ZM915.931 89.1249C920.09 88.752 916.348 93.8115 914.223 97.9256C903.281 119.257 894.344 141.595 889.583 164.961C880.785 208.174 882.086 252.616 882.689 296.399C883.647 366.137 887.378 435.745 891.697 505.175C891.697 505.175 892.015 506.026 890.883 506.626C890.01 507.091 888.954 506.969 888.619 505.364C883.413 421.621 879 337.355 879.187 253.55C879.291 206.25 883.028 157.665 902.513 114.865C906.364 106.409 910.61 98.1398 914.921 89.9083C915.194 89.5742 915.539 89.3063 915.931 89.1249H915.931ZM878.292 481.352C879.752 480.522 882.135 485.017 878.843 484.364C877.378 484.079 878.168 481.426 878.293 481.352L878.292 481.352ZM1058.75 375.046C1060.15 374.247 1062.51 376.776 1060.62 377.937C1059.22 378.801 1056.75 376.212 1058.75 375.047L1058.75 375.046ZM876.84 455.32C878.644 454.306 880.706 459.713 877.235 458.27C876.142 457.812 875.524 456.076 876.841 455.318L876.84 455.32ZM1056.21 288.675C1057.54 287.917 1059.81 290.093 1057.98 291.316C1056.66 292.198 1054.14 289.88 1056.21 288.675ZM875.891 378.511C877.376 377.662 879.546 381.006 877.204 381.602C875.747 381.973 874.221 379.486 875.891 378.511ZM1057.82 260.843C1058.35 260.596 1058.97 260.601 1059.5 260.858C1060.03 261.115 1060.41 261.595 1060.55 262.166C1060.9 263.761 1057.71 264.889 1057.08 262.595C1056.91 261.935 1057.19 261.241 1057.76 260.875L1057.82 260.843ZM1057.26 237.008C1058.8 236.116 1061.14 240.341 1057.88 239.906C1056.61 239.737 1055.95 237.767 1057.26 237.009L1057.26 237.008ZM874.069 338.217C875.563 337.361 878.081 341.744 874.701 341.219C873.447 341.027 872.752 338.983 874.07 338.219L874.069 338.217ZM1059.06 338.217C1060.55 337.361 1063.07 341.744 1059.69 341.219C1058.44 341.027 1057.74 338.983 1059.06 338.219L1059.06 338.217ZM1053.88 209.185C1054.03 209.102 1054.19 209.043 1054.35 209.007C1056.36 208.621 1058.28 212.695 1055.03 212.036C1054.11 211.839 1051.83 210.377 1053.88 209.187L1053.88 209.185ZM873.562 301.899C874.608 301.311 875.969 302.947 875.969 302.947C876.428 303.858 876.228 305.052 875.253 305.405C874.462 305.684 873.592 305.289 873.284 304.512C873.161 304.184 873.077 304.981 872.809 303.49C872.712 302.88 872.983 302.271 873.502 301.933L873.562 301.899ZM1051.02 181.284C1052.46 180.461 1054.63 182.69 1053.08 183.846C1051.64 184.91 1049.17 182.362 1051.02 181.283L1051.02 181.284ZM877.017 181.284C878.464 180.461 880.631 182.69 879.076 183.846C877.643 184.91 875.171 182.362 877.019 181.283L877.017 181.284ZM873.447 268.116C874.893 267.277 877.241 270.329 874.609 270.959C873.231 271.287 871.803 269.071 873.447 268.116ZM1047.1 160.234C1048.66 159.348 1051.18 163.329 1047.83 163.231C1046.47 163.191 1045.7 161.038 1047.1 160.234ZM880.099 160.234C881.661 159.348 884.181 163.329 880.826 163.231C879.472 163.191 878.705 161.038 880.099 160.234ZM873.03 231.403C874.555 230.527 876.712 233.995 874.179 234.428C872.734 234.676 871.574 232.253 873.03 231.403ZM1038.36 134.265C1039.76 133.476 1041.62 135.792 1039.73 137.173C1038.35 138.186 1036.01 135.608 1038.36 134.265ZM887.359 134.265C888.762 133.476 890.616 135.792 888.73 137.173C887.348 138.186 885.015 135.608 887.359 134.265ZM875.038 204.552C876.664 203.629 878.852 209.467 875.094 207.276C874.626 206.986 874.337 206.479 874.326 205.93C874.315 205.381 874.583 204.863 875.038 204.554V204.552Z" fill="#AACEF2"/>
</g>
<path fill-rule="evenodd" clip-rule="evenodd" d="M962.255 102.762L891.26 104C891.26 104 955.311 1.8587 964.789 0.0214043C973.691 -1.70454 1033.26 101.523 1033.26 101.523L962.255 102.762V102.762Z" fill="#E3616E"/>
<path fill-rule="evenodd" clip-rule="evenodd" d="M1033.07 268.728C1033.72 306.227 1003.85 337.156 966.353 337.81C928.854 338.463 897.924 308.594 897.27 271.094C896.616 233.594 926.485 202.665 963.985 202.01C981.994 201.695 999.39 208.548 1012.35 221.06C1025.3 233.572 1032.76 250.719 1033.07 268.728" fill="#E3616E"/>
<path fill-rule="evenodd" clip-rule="evenodd" d="M1020.1 268.074C1019.86 254.218 1014.37 240.967 1004.72 231C1004.77 232.083 1004.83 233.161 1004.85 234.254C1005.48 267.859 992.247 300.245 968.26 323.838C997.735 322.142 1020.61 297.532 1020.1 268.074" fill="#AACEF2"/>
<path fill-rule="evenodd" clip-rule="evenodd" d="M1004.86 235.16C1004.84 234.07 1004.76 232.995 1004.72 231.913C996.885 223.683 986.686 218.12 975.552 216C975.686 217.496 975.789 219 975.815 220.524C976.095 236.553 970.03 252.036 958.957 263.568C947.883 275.1 932.708 281.736 916.769 282.015C915.254 282.043 913.754 281.991 912.264 281.907C917.943 307.275 940.558 325.145 966.411 324.694C967.147 324.681 967.874 324.642 968.602 324.601C992.367 301.045 1005.47 268.711 1004.86 235.16" fill="#AACEF2"/>
<path fill-rule="evenodd" clip-rule="evenodd" d="M976.227 220.439C976.201 218.922 976.099 217.424 975.963 215.934C957.815 212.556 939.176 218.475 926.35 231.687C913.525 244.899 908.228 263.638 912.253 281.563C913.755 281.646 915.264 281.697 916.792 281.669C950.199 281.088 976.808 253.675 976.225 220.439" fill="white"/>
<path fill-rule="evenodd" clip-rule="evenodd" d="M1181.97 415.933C1181.76 403.803 1174.8 392.791 1163.9 387.34L1099.6 355.176V355.171L1077.26 344L1079.16 452L1101.29 451.616V451.616L1164.35 450.52C1174.42 450.345 1182.43 442.09 1182.26 432.082L1181.97 415.933Z" fill="#A68CCD"/>
<path fill-rule="evenodd" clip-rule="evenodd" d="M858.26 455.511L856.364 347L834.437 358.996V358.996L771.315 393.54C760.618 399.394 754.052 410.694 754.265 422.882L754.547 439.107C754.724 449.163 763.021 457.172 773.082 456.997L836.13 455.896V455.896L858.26 455.511Z" fill="#A68CCD"/>
<path fill-rule="evenodd" clip-rule="evenodd" d="M980.651 412.84C980.533 406.186 974.978 400.885 968.243 401.002C961.508 401.118 956.144 406.607 956.262 413.262L957.869 504.223C958.021 510.852 963.566 516.114 970.276 515.998C976.986 515.882 982.341 510.432 982.259 503.801L980.651 412.84Z" fill="#E3616E"/>
<path fill-rule="evenodd" clip-rule="evenodd" d="M839.437 1595.97H277.887C275.742 1589.14 275.28 1582.31 277.33 1575.84C281.041 1564.1 291.901 1556.9 300.458 1552.71C273.934 1521.79 279.337 1474.49 310.971 1450.73C342.071 1427.37 388.071 1434.62 410.844 1467.56C433.973 1419.72 469.717 1427.87 490.48 1436.81C509.004 1444.77 520.18 1457.04 541.205 1520.12C549.153 1471.25 589.733 1436.36 632.668 1436.02C684.129 1435.6 731.479 1484.87 726.233 1545.36C732.688 1541.81 775.244 1519.18 807.183 1538C826.674 1549.47 837.334 1573.5 839.437 1595.97Z" fill="white"/>
<path fill-rule="evenodd" clip-rule="evenodd" d="M1866.29 1517.83C1863.88 1516.21 1861.36 1514.75 1858.74 1513.47C1824.4 1496.69 1781.2 1513.84 1771.68 1517.83C1777.16 1478.43 1752.75 1441.95 1718.06 1432.68C1678.48 1422.1 1633.8 1449.16 1625.03 1494.18C1609.76 1440.66 1556.3 1409.08 1506.76 1420.06C1464.07 1429.53 1431.45 1469.03 1429.5 1516.25C1423.76 1514.05 1368.24 1493.54 1338.04 1520.99C1318.25 1538.95 1316.85 1570.68 1321.53 1595.97H1892.08C1894.77 1592.41 1896.92 1588.47 1898.46 1584.28C1899.26 1582.03 1899.9 1579.72 1900.39 1577.38C1896.39 1553.5 1885.3 1530.66 1866.29 1517.83Z" fill="white"/>
</svg>
