<svg width="2291" height="1226" viewBox="0 0 2291 1226" fill="none" xmlns="http://www.w3.org/2000/svg">
<path fill-rule="evenodd" clip-rule="evenodd" d="M192.454 1225.16H2191.41C2231.1 1139.33 2279.6 1005.69 2287.34 837.37C2292.93 716.064 2297.79 610.561 2231.37 557.518C2145.53 488.958 2029.91 629.341 1875.56 617.486C1577.97 594.629 1527.19 35.4643 1215.91 1.81326C920.07 -30.1697 619.013 368.437 552.265 605.493C544.845 631.844 532.085 689.229 482.965 722.764C390.259 786.064 287.279 682.98 164.465 729.427C74.9953 763.264 -7.56167 869.866 0.552327 989.289C7.70433 1094.48 83.7453 1188.13 192.454 1225.16Z" fill="#EFEAF6"/>
<path fill-rule="evenodd" clip-rule="evenodd" d="M941.119 869.116L942.068 790.716C942.068 790.716 957.368 774.102 958.953 750.236C959.241 746.172 957.602 742.208 954.527 739.534C951.452 736.86 947.299 735.787 943.314 736.636C916.094 742.497 884.859 755.377 857.942 737.969C839.673 726.154 776.958 732.341 776.958 732.341C776.958 732.341 757.321 749.302 804.417 759.919C851.513 770.536 877.952 787.986 881.154 807.594C884.356 827.202 883.654 853.549 883.654 853.549C883.654 853.549 948.88 941.172 941.119 869.116Z" fill="#FFD5C0"/>
<path fill-rule="evenodd" clip-rule="evenodd" d="M963.952 1178.17C1037.09 1081.31 946.435 855.294 946.435 855.294L878.266 846.182C888.078 1021.11 850.377 1103.04 879.866 1198.69L963.988 1178.19L963.952 1178.17Z" fill="#353B6E"/>
<path fill-rule="evenodd" clip-rule="evenodd" d="M2018.14 1220.99H1811.25L1724.68 1159.37L1932.28 1163.85L2018.14 1220.99Z" fill="#AFAFAF"/>
<path fill-rule="evenodd" clip-rule="evenodd" d="M1931.57 1163.85L2018.14 1220.99V1029.51L1935.05 954.128L1931.57 1163.85Z" fill="#DDDDDD"/>
<path fill-rule="evenodd" clip-rule="evenodd" d="M1655.51 732.383C1666.2 751.092 1676.89 815.238 1662.19 975.605C1647.49 1135.97 1634.13 1164.04 1594.03 1170.72C1553.94 1177.4 1468.41 1202.79 1480.44 1089.2C1492.47 975.603 1461.73 777.819 1540.58 729.71C1619.42 681.601 1655.51 732.383 1655.51 732.383Z" fill="#353B6E"/>
<path fill-rule="evenodd" clip-rule="evenodd" d="M609.12 1027.72L540.965 988.969C540.965 988.969 533.823 967.543 513.704 954.61C510.287 952.389 506.024 951.904 502.196 953.3C498.367 954.696 495.417 957.811 494.231 961.71C486.193 988.369 482.356 1021.94 454.1 1037.07C434.924 1047.35 410 1105.23 410 1105.23C410 1105.23 415.346 1130.62 447.419 1094.54C479.492 1058.46 507.556 1043.76 526.265 1050.44C544.974 1057.12 567.693 1070.48 567.693 1070.48C567.693 1070.48 675.939 1055.79 609.12 1027.72Z" fill="#FFD5C0"/>
<path fill-rule="evenodd" clip-rule="evenodd" d="M1525.88 1126.61C1525.88 1126.61 1459.06 1045.09 1453.72 1135.3C1453.72 1135.3 1441.69 1216.15 1504.5 1216.15C1567.31 1216.15 1826.57 1221.5 1826.57 1221.5C1826.57 1221.5 1797.17 1160.02 1767.77 1176.06C1738.37 1192.1 1716.98 1188.09 1690.26 1184.08C1663.53 1180.07 1553.94 1131.96 1524.54 1160.02L1525.88 1126.61Z" fill="#FFD5C0"/>
<path fill-rule="evenodd" clip-rule="evenodd" d="M1539.24 878.049C1539.24 878.049 1556.62 954.223 1567.31 972.933C1578 991.643 1569.98 1030.4 1513.85 1062.47C1457.72 1094.54 1429.66 1201.45 1250.58 1216.16C1250.58 1216.16 1191.78 1110.58 1243.9 1045.1C1243.9 1045.1 1334.78 1029.06 1368.18 982.287C1401.59 935.513 1420.3 914.132 1420.3 914.132L1539.24 878.049Z" fill="#F2B5BB"/>
<path fill-rule="evenodd" clip-rule="evenodd" d="M1662.19 760.448C1662.19 760.448 1654.17 878.048 1614.08 851.322C1573.99 824.596 1525.88 904.778 1525.88 904.778C1525.88 904.778 1437.68 920.815 1472.42 880.724C1493.53 856.408 1516.79 834.045 1541.91 813.905C1541.91 813.905 1595.37 808.559 1603.39 771.14C1611.41 733.721 1662.19 760.448 1662.19 760.448Z" fill="#FFD5C0"/>
<path fill-rule="evenodd" clip-rule="evenodd" d="M1537.9 858.004C1517.86 811.235 1420.3 914.135 1420.3 914.135C1434.15 929.165 1450.8 938.691 1467.39 944.658C1506.84 958.851 1545.92 952.89 1545.92 952.89C1545.92 952.89 1557.95 904.777 1537.9 858.004Z" fill="#FFD5C0"/>
<path fill-rule="evenodd" clip-rule="evenodd" d="M1243.9 1045.1C1221.85 1049.77 1179.09 1037.75 1153.7 1025.72C1128.3 1013.69 1094.9 1001.66 1046.78 1039.08C999.014 1076.24 901.196 1133.15 899.815 1133.95L883.305 1218.94C888.987 1219.72 894.715 1220.13 900.451 1220.16C998.008 1220.16 1250.58 1216.15 1250.58 1216.15C1332.1 1143.99 1243.9 1045.1 1243.9 1045.1Z" fill="#353B6E"/>
<path fill-rule="evenodd" clip-rule="evenodd" d="M899.784 1133.97C842.319 1027.06 599.097 1015.03 599.097 1015.03L562.347 1073.16C725.386 1137.31 784.079 1205.78 883.306 1218.94L899.816 1133.95L899.784 1133.97Z" fill="#404884"/>
<path fill-rule="evenodd" clip-rule="evenodd" d="M1548.6 936.85C1548.6 936.85 1568.64 825.93 1467.39 944.65C1467.29 944.722 1467.18 944.791 1467.08 944.864L1426.99 1133.3C1426.99 1133.3 1489.8 1141.32 1471.09 1127.96C1452.37 1114.59 1481.78 1117.27 1500.49 1122.61C1519.19 1127.96 1556.61 1141.32 1543.25 1117.27C1529.89 1093.21 1548.6 936.85 1548.6 936.85Z" fill="#404884"/>
<path fill-rule="evenodd" clip-rule="evenodd" d="M1259.63 1066.24C1237.58 1070.92 1194.82 1058.89 1169.43 1046.86C1144.04 1034.84 1110.63 1022.81 1062.52 1060.23C1014.75 1097.38 900.891 1132.91 899.51 1133.71L883 1218.7C888.682 1219.49 894.41 1219.9 900.146 1219.93C997.703 1219.93 1250.28 1215.92 1250.28 1215.92C1322.44 1154.44 1259.63 1066.24 1259.63 1066.24Z" fill="#404884"/>
<path fill-rule="evenodd" clip-rule="evenodd" d="M1936.7 423.336C1930.99 421.915 1919.63 424.658 1919.63 424.658C1913.01 426.258 1907.55 421.28 1907.05 413.473L1907.04 412.224V349.593L1895.08 346.615V346.588L1839.47 332.738C1838.59 332.519 1837.98 332.385 1837.71 332.325C1837.86 332.358 1838.09 332.403 1838.44 332.463C1830.75 330.051 1827.13 323.688 1830.38 317.883C1830.38 317.883 1835.96 307.9 1835.96 302.195C1835.96 291.207 1825.99 279.824 1813.7 276.763C1801.41 273.702 1791.44 280.12 1791.44 291.108C1791.44 296.813 1797.02 309.573 1797.02 309.573C1800.26 316.996 1796.65 321.557 1788.96 320.143L1787.72 319.843L1765.04 314.198L1725 304.224V304.251L1726.02 304.506V367.144L1726.04 368.395C1726.54 376.195 1732 381.181 1738.61 379.577C1738.61 379.577 1749.98 376.834 1755.69 378.255C1766.68 380.992 1775.58 393.179 1775.58 405.469C1775.58 417.759 1766.68 425.511 1755.69 422.774C1749.98 421.353 1738.61 412.939 1738.61 412.939C1732 408.049 1726.54 410.305 1726.04 417.864C1726.01 417.511 1726 417.281 1726 417.125C1726.01 417.411 1726.02 418.016 1726.02 418.899V486.382C1728.12 486.898 1732.96 488.093 1736.07 488.862L1787.92 501.747C1788.81 501.966 1789.4 502.098 1789.68 502.16C1789.54 502.131 1789.3 502.079 1788.96 502.019C1796.64 504.438 1800.26 510.798 1797.01 516.599C1797.01 516.599 1791.44 526.578 1791.44 532.285C1791.44 543.275 1801.39 554.661 1813.69 557.723C1825.99 560.785 1835.95 554.363 1835.95 543.371C1835.95 537.664 1830.37 524.909 1830.37 524.909C1827.13 517.491 1830.74 512.931 1838.43 514.341L1839.68 514.636L1866.99 521.467V521.489L1893.26 528.032C1894.25 528.278 1907.04 531.49 1907.04 531.49V463.98C1907.04 463.098 1907.02 462.492 1907.01 462.207C1907.01 462.361 1907.03 462.593 1907.05 462.946C1907.55 455.387 1913.01 453.131 1919.63 458.02C1919.63 458.02 1930.99 466.432 1936.7 467.853C1947.69 470.589 1956.59 462.843 1956.59 450.548C1956.59 438.253 1947.68 426.072 1936.7 423.336Z" fill="#F2B5BB"/>
<path fill-rule="evenodd" clip-rule="evenodd" d="M2137.08 510.686C2137.08 510.686 2125.72 513.438 2120.01 512.017C2109.02 509.281 2100.12 497.097 2100.12 484.803C2100.12 472.509 2109.02 464.761 2120.01 467.498C2125.72 468.919 2137.08 477.325 2137.08 477.325C2143.7 482.225 2149.16 479.963 2149.66 472.406L2149.67 471.162V408.53L2139.75 406.059V406.032L2105.29 397.45L2084.14 392.185C2083.25 391.964 2082.65 391.83 2082.37 391.77C2082.48 391.795 2082.65 391.826 2082.85 391.864L2032.38 379.294L2009.71 373.649L2007.2 373.024L1969.67 363.676V363.702L1970.69 363.957V426.588L1970.7 427.839C1971.2 435.639 1976.67 440.625 1983.28 439.021C1983.28 439.021 1994.65 436.278 2000.35 437.698C2011.34 440.434 2020.25 452.622 2020.25 464.912C2020.25 477.202 2011.34 484.954 2000.35 482.217C1994.65 480.796 1983.28 472.382 1983.28 472.382C1976.67 467.492 1971.2 469.748 1970.7 477.31C1970.68 476.955 1970.67 476.725 1970.67 476.568C1970.67 476.854 1970.69 477.462 1970.69 478.342V545.825C1972.78 546.343 1977.63 547.538 1980.74 548.305L2032.59 561.19C2033.47 561.409 2034.07 561.541 2034.35 561.603C2034.2 561.574 2033.97 561.523 2033.62 561.462C2041.31 563.881 2044.92 570.243 2041.68 576.044C2041.68 576.044 2036.1 586.023 2036.1 591.728C2036.1 602.721 2046.06 614.106 2058.36 617.167C2070.66 620.228 2080.62 613.807 2080.62 602.817C2080.62 597.11 2075.04 584.352 2075.04 584.352C2071.8 576.936 2075.41 572.374 2083.1 573.784L2084.35 574.079L2111.65 580.91V580.932L2137.93 587.475C2138.66 587.658 2146.03 589.508 2149.67 590.424V522.919C2149.67 522.037 2149.69 521.44 2149.7 521.157C2149.7 521.311 2149.68 521.537 2149.66 521.879C2149.17 514.067 2143.7 509.091 2137.08 510.686Z" fill="#404884"/>
<path fill-rule="evenodd" clip-rule="evenodd" d="M2080.36 782.131C2080.36 776.426 2074.79 763.671 2074.79 763.671C2071.54 756.246 2075.16 751.685 2082.84 753.096L2084.08 753.396L2146.72 768.996V757.043H2146.74V701.435C2146.74 700.55 2146.72 699.943 2146.72 699.661C2146.72 699.813 2146.73 700.05 2146.76 700.405C2147.26 692.837 2152.72 690.583 2159.33 695.479C2159.33 695.479 2170.7 703.885 2176.41 705.306C2187.4 708.042 2196.3 700.295 2196.3 688.006C2196.3 675.717 2187.4 663.526 2176.41 660.789C2170.7 659.366 2159.33 662.116 2159.33 662.116C2152.72 663.716 2147.26 658.736 2146.76 650.929L2146.74 649.678V586.962L2146.72 586.955V587.98L2084.09 572.38L2082.84 572.08C2075.16 570.666 2071.54 575.23 2074.79 582.655C2074.79 582.655 2080.36 595.407 2080.36 601.115C2080.36 612.103 2070.39 618.525 2058.1 615.465C2045.81 612.405 2035.84 601.015 2035.84 590.029C2035.84 584.322 2041.42 574.346 2041.42 574.346C2044.67 568.54 2041.05 562.174 2033.37 559.759C2033.72 559.824 2033.94 559.871 2034.1 559.904C2033.81 559.842 2033.21 559.71 2032.33 559.489L1964.85 542.689C1964.85 544.789 1964.86 549.636 1964.87 552.736L1964.9 604.598C1964.9 605.483 1964.92 606.081 1964.93 606.367C1964.92 606.217 1964.91 605.983 1964.88 605.627C1964.38 613.188 1958.92 615.445 1952.31 610.553C1952.31 610.553 1940.94 602.147 1935.24 600.727C1924.24 597.988 1915.34 605.727 1915.34 618.027C1915.34 630.327 1924.24 642.509 1935.24 645.246C1940.94 646.667 1952.31 643.917 1952.31 643.917C1958.92 642.317 1964.38 647.297 1964.88 655.106L1964.9 656.357L1964.87 683.657L1964.85 683.65V709.922C1964.85 710.912 1964.82 723.693 1964.82 723.693L2032.33 740.505C2033.21 740.726 2033.82 740.858 2034.1 740.92C2033.95 740.887 2033.72 740.84 2033.37 740.775C2041.05 743.19 2044.67 749.556 2041.43 755.362C2041.43 755.362 2035.85 765.34 2035.85 771.046C2035.85 782.032 2045.81 793.42 2058.1 796.482C2070.4 799.544 2080.36 793.119 2080.36 782.131Z" fill="#A68CCD"/>
</svg>
