<svg width="1780" height="1262" viewBox="0 0 1780 1262" fill="none" xmlns="http://www.w3.org/2000/svg">
<path fill-rule="evenodd" clip-rule="evenodd" d="M342.192 652.952C684.455 538.243 672.746 566.997 738.161 524.844C891.933 425.758 855.425 323.838 1049.7 163.813C1088.37 131.954 1291.67 -42.1223 1367.06 9.50166C1452.09 67.7307 1275.31 344.708 1393.26 472.437C1477.98 564.186 1621.11 477.499 1698.97 568.518C1786.51 670.855 1729.84 925.725 1582.51 1025.63C1475.4 1098.26 1388.06 1043.09 1189.45 1083.86C984.892 1125.85 962.608 1226.58 816.771 1255.64C624.945 1293.87 592.938 1121.29 318.898 1095.51C159.234 1080.48 76.7236 1122.75 27.7436 1063.48C-23.8334 1001.07 4.73265 878.047 59.7706 801.441C104.209 739.588 162.079 713.318 342.192 652.952Z" fill="#EFEAF6"/>
<path fill-rule="evenodd" clip-rule="evenodd" d="M958.225 729.111C958.225 729.111 1039.75 652.371 1040.47 608.12L965.933 592.72C965.933 592.72 942.523 682.719 958.225 729.111Z" fill="#272E56"/>
<path fill-rule="evenodd" clip-rule="evenodd" d="M1044.75 632.924C1059.31 656.382 1118.83 753.471 1155.09 785.194C1191.35 816.917 1257.66 827.85 1236.73 887.783C1215.81 947.716 1142.82 853.7 1123.53 837.001C1104.25 820.302 971.991 749.827 939.706 681.71C926.655 654.174 927.312 639.625 924.896 617.163C918.229 555.212 954.496 509.533 996.476 550.705C996.967 551.185 1030.19 609.466 1044.75 632.924Z" fill="#FFD5C0"/>
<path fill-rule="evenodd" clip-rule="evenodd" d="M935.957 372.172C935.957 372.172 959.51 362.537 980.921 432.126C1002.33 501.715 1040.87 608.775 1040.87 608.775C1040.87 608.775 962.775 652.296 958.225 729.11C958.225 729.11 880.286 610.916 861.016 560.597C841.746 510.278 832.109 357.185 935.957 372.172Z" fill="#404884"/>
<path fill-rule="evenodd" clip-rule="evenodd" d="M524.636 353.45C527.795 341.324 536.184 331.244 548.412 328.497C610.191 314.615 740.326 257.98 816.586 300.441C881.002 336.307 943.741 369.694 956.963 380.859C959.78 383.249 960.699 387.203 959.225 390.591C896.525 537.475 803.936 838.276 803.936 838.276C761.114 837.206 440.049 874.666 440.049 874.666C413.85 782.966 452.95 628.694 524.636 353.45Z" fill="#353B6E" stroke="black" stroke-opacity="0.01"/>
<path fill-rule="evenodd" clip-rule="evenodd" d="M1728.99 876.375L1501.17 675.675L307.33 903.11L205.09 877.465V922.587L483.127 1207.04L1779.37 921.381V878.192L1728.99 876.375Z" fill="#404884"/>
<path fill-rule="evenodd" clip-rule="evenodd" d="M1779.17 878.203L1499.71 632.008L203.634 878.916L481.671 1163.37L1779.17 878.203Z" fill="#AACEF2"/>
<path fill-rule="evenodd" clip-rule="evenodd" d="M865.607 996.982C871.712 995.671 876.704 991.296 878.805 985.416C880.906 979.536 879.816 972.987 875.924 968.105C866.906 956.783 855.161 943.268 842.824 932.405C822.514 914.514 797.862 907.337 797.862 907.337L737.049 920.599L815.176 999.322C819.503 1003.68 825.753 1005.54 831.76 1004.25L865.607 996.982Z" fill="#AFAFAF"/>
<path fill-rule="evenodd" clip-rule="evenodd" d="M853.095 998.31C852.467 998.309 851.911 997.906 851.715 997.31C851.625 997.044 842.66 970.61 825.729 956.733C825.327 956.404 825.131 955.884 825.215 955.371C825.3 954.858 825.651 954.429 826.138 954.246C826.624 954.063 827.172 954.153 827.574 954.482C845.164 968.895 854.104 995.274 854.474 996.39C854.621 996.834 854.546 997.321 854.272 997.701C853.999 998.08 853.56 998.305 853.093 998.306L853.095 998.31Z" fill="#DDDDDD"/>
<path fill-rule="evenodd" clip-rule="evenodd" d="M417.724 691.311C417.724 691.311 532.783 560.886 575.871 682.155C575.871 682.155 479.714 720.501 417.724 691.311" fill="#272E56"/>
<path fill-rule="evenodd" clip-rule="evenodd" d="M541.946 596.648C541.946 596.648 546.782 648.71 563.673 670.548C580.564 692.386 714.619 844.448 753.944 872.284C793.269 900.12 860.344 904.184 845.689 965.951C831.034 1027.72 748.767 941.688 727.876 927.051C706.985 912.414 499.916 801.951 460.809 737.504C445 711.452 447.54 689.263 442.831 667.166C429.841 606.227 494.343 558.696 540.331 595.342C540.864 595.773 541.402 596.208 541.946 596.648Z" fill="#FFD5C0"/>
<path fill-rule="evenodd" clip-rule="evenodd" d="M594.824 340.857C613.053 355.296 618.724 377.357 622.857 399.762C629.079 433.462 627.357 482.35 575.878 682.155C575.878 682.155 460.928 668.263 417.731 691.311C417.731 691.311 430.644 534.88 475.531 434.525C489.806 402.611 501.504 368.555 524.916 341.851C529.478 336.651 539.168 330.068 550.13 330.135C570.513 330.26 589.349 336.523 594.824 340.857Z" fill="#404884"/>
<path fill-rule="evenodd" clip-rule="evenodd" d="M894.328 126.116C894.533 125.891 894.735 125.663 894.935 125.434C898.979 120.8 901.596 115.234 904.6 109.934C907.7 104.471 910.672 98.6629 911.392 92.3339C912.399 83.4849 910.27 72.2139 907.068 63.8339C903.785 55.18 897.219 48.172 888.797 44.3339C867.059 34.1899 838.657 37.3779 813.152 49.5509C787.647 61.7239 732 58.2449 736.059 124.036C740.118 189.827 792.285 195.044 787.359 215.911L828.804 180.263C844.604 167.315 860.575 154.548 876.22 141.412C882.201 136.388 889.048 131.917 894.328 126.116Z" fill="#423565"/>
<path fill-rule="evenodd" clip-rule="evenodd" d="M896.332 114.472C896.332 114.472 937.2 240.605 860.973 233.592C813.731 229.244 796.632 193.592 796.632 193.592C796.632 193.592 780.112 198.809 778.083 165.192C776.878 145.215 801.848 134.47 803.008 165.772C803.008 165.772 820.977 171.278 824.455 144.614C827.933 117.95 841.845 119.109 856.916 123.747C871.987 128.385 894.016 122.588 896.332 114.472Z" fill="#FFD5C0"/>
<path fill-rule="evenodd" clip-rule="evenodd" d="M791.127 189.537C791.127 189.537 772.427 251.517 755.91 276.152C755.91 276.152 730.743 286.807 714.731 286.59C698.564 286.37 723.141 381.69 821.476 371.34C876.169 365.583 842.426 314.454 842.426 314.454C842.426 314.454 828.726 303.519 829.887 298.882C831.048 294.245 853.438 226.346 853.438 226.346C853.438 226.346 854.014 166.062 791.127 189.537Z" fill="#FFD5C0"/>
<path fill-rule="evenodd" clip-rule="evenodd" d="M1259.61 789.313L1200.66 737.374C1196.12 733.378 1189.99 731.703 1184.06 732.835L788.228 808.241C781.146 809.589 775.379 814.722 773.219 821.6C771.059 828.478 772.856 835.986 777.896 841.141L839.437 904.101C844.157 908.93 851.034 910.984 857.63 909.534L1250.87 823.106C1258.08 821.525 1263.78 816.031 1265.62 808.893C1267.47 801.756 1265.15 794.187 1259.61 789.313V789.313Z" fill="#A68CCD"/>
<path fill-rule="evenodd" clip-rule="evenodd" d="M1291.14 914.749L1271 896.998C1269.19 895.408 1266.75 894.741 1264.39 895.192L1122.22 922.275C1119.4 922.811 1117.11 924.855 1116.25 927.594C1115.39 930.333 1116.1 933.323 1118.11 935.375L1139.3 957.057C1141.18 958.979 1143.92 959.797 1146.55 959.22L1287.67 928.203C1290.54 927.574 1292.81 925.386 1293.54 922.544C1294.27 919.702 1293.35 916.688 1291.14 914.749V914.749Z" fill="#404884"/>
<path fill-rule="evenodd" clip-rule="evenodd" d="M1381.05 817.926L1023.36 896.54C1010.42 899.382 996.923 895.583 987.37 886.411C977.817 877.24 973.47 863.906 975.783 850.867L1038.42 497.737C1041.23 481.927 1053.28 469.367 1068.97 465.921L1426.66 387.307C1439.59 384.463 1453.09 388.262 1462.65 397.434C1472.2 406.605 1476.55 419.94 1474.23 432.98L1411.6 786.11C1408.79 801.919 1396.73 814.478 1381.05 817.926V817.926Z" fill="#DDDDDD"/>
<path fill-rule="evenodd" clip-rule="evenodd" d="M1295.16 777.381L1282.06 768.162L1189.91 788.415L1154.29 928.28L1167.47 937.015C1193.46 931.302 1246.45 908.027 1246.45 908.027L1276.56 789.777L1279.56 791.655L1295.16 777.381Z" fill="#AFAFAF"/>
<path fill-rule="evenodd" clip-rule="evenodd" d="M1259.55 917.245L1167.39 937.499L1203.01 797.634L1295.16 777.38L1259.55 917.245Z" fill="#DDDDDD"/>
<path fill-rule="evenodd" clip-rule="evenodd" d="M682.281 1025.09C681.558 1044.26 640.064 1059.6 589.605 1059.36C539.146 1059.11 498.832 1043.38 499.555 1024.2C500.278 1005.03 541.775 989.69 592.233 989.933C642.691 990.176 683.005 1005.92 682.281 1025.09Z" fill="#353B6E"/>
<path fill-rule="evenodd" clip-rule="evenodd" d="M557.603 995.309L557.57 995.278C557.112 994.68 556.611 994.118 556.07 993.595C554.967 992.68 553.725 991.947 552.391 991.424C550.129 990.588 547.877 989.706 545.635 988.818C540.763 986.864 536.028 984.589 531.459 982.007C523.403 977.507 507.976 968.574 506.136 959.369C504.575 951.544 511.924 943.542 520.613 947.627C525.069 949.727 528.002 955.312 532.494 957.82C548.713 966.873 542.994 941.114 537.125 935.187C531.641 929.648 522.625 927.512 514.785 927.976C494.392 929.176 487.499 946.335 490.143 960.749C492.681 974.567 504.33 985.226 516.398 993.022C522.281 996.758 528.494 999.95 534.958 1002.56C541.529 1005.26 548.358 1008.19 555.275 1005.8C560.169 1004.11 561.223 998.899 557.603 995.309Z" fill="#485194"/>
<path fill-rule="evenodd" clip-rule="evenodd" d="M653.123 1024.12L654.573 926.072L654.091 906.465C654.091 900.954 650.518 895.606 645.997 892.025C635.814 883.958 621.47 882.398 609.003 881.136C597.298 880.041 585.516 880.041 573.811 881.136C561.343 882.398 546.891 883.958 536.711 892.025C532.191 895.606 528.511 900.47 528.511 906.466L529.961 1024.12C529.961 1024.12 540.225 1043.92 587.439 1043.92C637.547 1043.93 653.123 1024.12 653.123 1024.12Z" fill="#485194"/>
<path fill-rule="evenodd" clip-rule="evenodd" d="M528.613 915.182L528.808 931.073C533.429 936.044 548.381 947.662 587.242 947.662C630.797 947.662 649.435 934.705 654.513 930.302L654.575 926.073L654.298 914.807C648.927 919.375 630.21 931.982 587.242 931.982C547.822 931.982 533 920.028 528.613 915.182Z" fill="#A68CCD"/>
<path fill-rule="evenodd" clip-rule="evenodd" d="M653.305 1011.96L653.537 996.096C647.29 1001.09 628.381 1012.64 587.237 1012.64C550.406 1012.64 535.052 1002.21 529.615 996.886L529.815 1012.76C535.415 1018.13 550.846 1028.32 587.24 1028.32C627.882 1028.32 646.822 1017.05 653.305 1011.96Z" fill="#A68CCD"/>
<path fill-rule="evenodd" clip-rule="evenodd" d="M587.241 987.269C629.253 987.269 648.081 975.215 653.918 970.41L654.152 954.537C648.595 959.204 629.829 971.59 587.241 971.59C549.182 971.59 534.055 960.447 529.108 955.317L529.303 971.195C534.447 976.408 549.669 987.269 587.241 987.269Z" fill="#A68CCD"/>
<path fill-rule="evenodd" clip-rule="evenodd" d="M593.46 884.366C523.727 884.366 532.76 903.421 533.66 904.766C533.737 904.948 534.288 904.545 534.924 903.981C536.612 907.481 541.998 910.237 548.074 912.324C562.817 917.391 582.595 919.266 599.993 918.583C606.798 918.35 613.575 917.595 620.265 916.325C620.222 916.385 620.191 916.453 620.175 916.525C622.907 915.993 625.575 915.359 628.142 914.613C635.065 912.6 642.167 910.192 646.549 906.718C647.282 906.156 647.935 905.497 648.49 904.759C649.296 905.585 650.314 906.247 650.823 905.721C650.819 905.72 663.19 884.366 593.46 884.366Z" fill="white"/>
<path fill-rule="evenodd" clip-rule="evenodd" d="M647.546 904.446C644.213 911.665 630.046 914.846 621.362 918.71C621.158 918.784 621.007 918.957 620.962 919.169C623.739 918.585 626.448 917.893 629.062 917.076C636.1 914.876 643.339 912.276 647.774 908.447C652.209 904.618 650.989 901.015 647.15 897.994C648.35 899.944 648.498 902.364 647.546 904.446V904.446Z" fill="#878F8C"/>
<path fill-rule="evenodd" clip-rule="evenodd" d="M530.238 902.417C530.238 891.76 557.596 883.117 591.338 883.117C625.085 883.117 652.439 891.76 652.438 902.417C652.438 915.43 625.082 923.309 591.338 923.309C557.594 923.309 530.238 914.694 530.238 902.417ZM535.378 901.174C535.378 910.252 560.432 917.617 591.338 917.617V917.619C622.25 917.619 647.304 910.261 647.304 901.174C647.304 892.087 622.243 884.725 591.338 884.725C560.433 884.725 535.378 892.096 535.378 901.174Z" fill="#485194"/>
<g opacity="0.5">
<path fill-rule="evenodd" clip-rule="evenodd" d="M570.952 810.132C570.952 810.132 590.018 820.75 581.243 833.712C572.468 846.674 581.243 858.572 581.243 858.572C579.925 856.662 580.343 852.93 580.451 850.897C580.645 845.903 582.047 841.03 584.538 836.697C586.298 833.728 588.938 830.926 589.353 827.608C590.06 821.948 584.053 817.635 578.661 814.442C576.151 812.955 573.568 811.513 570.952 810.132Z" fill="#878F8C"/>
<path fill-rule="evenodd" clip-rule="evenodd" d="M591.505 819.065C591.505 819.065 599.86 825.774 594.199 832.329C588.538 838.884 593.519 845.597 593.519 845.597C592.948 844.507 593.442 842.52 593.651 841.432C594.127 838.732 595.234 836.182 596.881 833.99C598.043 832.476 599.666 831.09 600.13 829.329C600.922 826.318 598.005 823.717 595.337 821.746C594.095 820.828 592.812 819.932 591.505 819.065Z" fill="#878F8C"/>
<path fill-rule="evenodd" clip-rule="evenodd" d="M582.137 858.787C582.137 858.787 588.514 863.908 584.194 868.913C579.874 873.918 583.673 879.04 583.673 879.04C583.237 878.209 583.615 876.692 583.773 875.862C584.137 873.8 584.981 871.854 586.238 870.18C587.125 869.024 588.365 867.97 588.719 866.621C589.319 864.321 587.096 862.338 585.059 860.834C584.11 860.134 583.134 859.448 582.137 858.787Z" fill="#878F8C"/>
<path fill-rule="evenodd" clip-rule="evenodd" d="M590.095 833.345C590.095 833.345 581.801 848.684 588.279 858.023C594.406 866.859 587.371 872.099 587.371 872.099C587.371 872.099 598.43 868.17 592.441 858.328C585.026 846.142 590.095 833.345 590.095 833.345Z" fill="#878F8C"/>
</g>
<path fill-rule="evenodd" clip-rule="evenodd" d="M1554.28 688.467C1608.63 688.467 1652.68 684.796 1652.68 680.267C1652.68 675.739 1608.63 672.067 1554.28 672.067C1499.94 672.067 1455.89 675.739 1455.89 680.267C1455.89 684.796 1499.94 688.467 1554.28 688.467Z" fill="#353B6E"/>
<path fill-rule="evenodd" clip-rule="evenodd" d="M1652.09 692.135L1554.35 698.609L1456.6 692.135C1456.6 692.135 1445.67 762.508 1510.47 851.023C1512.24 853.427 1514.74 855.183 1517.61 856.023C1525.06 858.223 1540.55 862.195 1554.34 861.776C1568.28 862.195 1583.69 858.234 1591.1 856.029C1593.95 855.184 1596.45 853.428 1598.21 851.029C1663.02 762.516 1652.09 692.135 1652.09 692.135Z" fill="#404884"/>
<path fill-rule="evenodd" clip-rule="evenodd" d="M1446.18 433.883C1448.36 441.683 1446.72 452.423 1447.54 460.556C1448.99 475.076 1451.39 490.421 1456.24 504.239C1467.12 535.318 1489.1 559.972 1497.97 592.152C1507.94 628.327 1505.18 664.53 1495.08 700.283L1537.18 705.033C1548.35 706.262 1545.7 634.923 1544.83 627.958C1539.64 586.576 1520.84 551.193 1497.01 517.645C1479.22 492.6 1456.8 465.498 1446.85 436.045C1446.61 435.329 1446.38 434.609 1446.18 433.883Z" fill="#A68CCD"/>
<path fill-rule="evenodd" clip-rule="evenodd" d="M1343.75 576.253C1348.32 579.71 1351.99 586.453 1355.93 590.686C1362.97 598.236 1370.89 605.846 1379.52 611.553C1398.95 624.392 1421.87 628.86 1440.64 643.178C1461.73 659.278 1475.67 680.834 1485.29 705.278L1511.02 689.933C1517.83 685.847 1485.81 646.825 1482.34 643.278C1461.71 622.203 1435.98 610.332 1408.21 601.646C1387.48 595.161 1363.26 589.501 1345.06 577.177C1344.62 576.881 1344.18 576.575 1343.75 576.253Z" fill="#A68CCD"/>
<path fill-rule="evenodd" clip-rule="evenodd" d="M1765.99 615.46C1760.84 617.978 1755.95 623.898 1751.27 627.295C1742.92 633.357 1733.69 639.311 1724.12 643.26C1702.6 652.144 1679.24 652.139 1658.08 662.601C1634.3 674.36 1616.49 692.853 1602.37 715.008L1580.05 695.021C1574.15 689.707 1613.05 657.536 1617.14 654.721C1641.42 637.984 1668.94 631.257 1697.86 628.048C1719.45 625.648 1744.31 624.734 1764.53 616.122C1765.02 615.912 1765.51 615.694 1765.99 615.46Z" fill="#A68CCD"/>
<path fill-rule="evenodd" clip-rule="evenodd" d="M1661.24 433.797C1659.08 441.603 1660.74 452.338 1659.94 460.474C1658.51 474.996 1656.14 490.347 1651.32 504.174C1640.5 535.274 1618.56 559.969 1609.75 592.166C1599.85 628.359 1602.68 664.557 1612.84 700.292L1570.75 705.12C1559.58 706.37 1562.1 635.026 1562.96 628.059C1568.07 586.666 1586.8 551.249 1610.57 517.659C1628.31 492.581 1650.68 465.438 1660.57 435.965C1660.81 435.244 1661.04 434.525 1661.24 433.797Z" fill="#A68CCD"/>
<path fill-rule="evenodd" clip-rule="evenodd" d="M1422.24 516.285C1422.24 516.285 1458.16 569.197 1506.6 606.385C1554.78 643.378 1525.85 698.113 1525.85 698.113H1492.41C1492.41 698.113 1502.43 664.56 1481.71 636.847C1461 609.134 1425.85 567.811 1422.24 516.285Z" fill="#A68CCD"/>
<path fill-rule="evenodd" clip-rule="evenodd" d="M1558.58 433.793C1556.8 435.921 1556.58 441.924 1556.07 444.512C1554.21 453.746 1553.25 463.14 1553.21 472.559C1553.27 493.059 1561.92 512.017 1567.51 531.412C1575.51 559.201 1583.64 588.144 1584.08 617.225C1584.28 630.939 1582.94 644.632 1580.08 658.046C1579.13 662.514 1571.58 697.462 1567.22 697.665C1555.58 698.208 1543.25 700.002 1531.68 699.114C1531.49 693.552 1536.69 685.342 1538.54 679.67C1549.6 645.775 1542.54 616.802 1536.06 582.914C1530.91 555.957 1530.78 528.56 1534.46 501.414C1537.63 477.95 1543.01 452.443 1558.58 433.793Z" fill="#A68CCD"/>
<path fill-rule="evenodd" clip-rule="evenodd" d="M1708.37 526.836C1704.91 532.1 1703.59 540.443 1701.06 546.276C1696.56 556.689 1691.15 567.49 1684.3 576.583C1668.9 597.038 1646.79 610.107 1632.62 631.854C1616.69 656.298 1610.18 683.771 1609.22 712.643C1609.22 712.643 1577 706.235 1576.91 706.217C1568.34 704.489 1587.16 652.267 1589.45 647.317C1603.07 617.884 1625.35 596.117 1650.93 576.887C1670.03 562.535 1693.04 547.754 1707.36 528.282C1707.71 527.806 1708.05 527.327 1708.37 526.836Z" fill="#A68CCD"/>
<path fill-rule="evenodd" clip-rule="evenodd" d="M1652.81 680.268H1652.68C1652.65 684.795 1608.61 688.468 1554.28 688.468C1499.96 688.468 1455.88 684.797 1455.88 680.268C1455.88 680.268 1441.86 695.725 1439.96 714.809C1439.93 714.953 1439.92 715.101 1439.91 715.249C1439.91 723.82 1491.11 730.77 1554.28 730.77C1617.44 730.77 1668.64 723.82 1668.64 715.249H1668.77C1667.05 695.962 1652.81 680.268 1652.81 680.268Z" fill="#D9C7FF"/>
<path opacity="0.52" fill-rule="evenodd" clip-rule="evenodd" d="M1554.67 692.931C1600.15 692.931 1635.16 689.289 1650.95 685.966C1652.16 685.715 1653.15 684.832 1653.53 683.654C1653.91 682.476 1653.64 681.183 1652.8 680.266V680.266H1652.68C1652.65 684.793 1608.61 688.466 1554.28 688.466C1499.95 688.466 1455.88 684.795 1455.88 680.266V680.266C1454.85 681.399 1454.52 683.003 1455.01 684.453C1455.5 685.903 1456.74 686.973 1458.25 687.246C1479.78 691.048 1515.36 692.931 1554.67 692.931Z" fill="#AD3A12"/>
</svg>
