<svg width="1761" height="1600" viewBox="0 0 1761 1600" fill="none" xmlns="http://www.w3.org/2000/svg">
<path fill-rule="evenodd" clip-rule="evenodd" d="M293.486 1483.7H1539.06C1539.06 1483.7 1948.31 1024.62 1652.94 917.86C1357.56 811.097 1446.53 750.598 1620.91 433.867C1795.29 117.136 1567.53 -3.8619 1378.91 13.9321C1190.29 31.7261 1037.27 117.132 862.886 412.514C688.506 707.896 563.949 696.028 382.456 694.843C200.963 693.658 -325.74 971.241 293.486 1483.7Z" fill="#EFEAF6"/>
<path fill-rule="evenodd" clip-rule="evenodd" d="M636.954 387.603H1036.25C1053.43 387.603 1069.9 394.426 1082.05 406.572C1094.19 418.717 1101.02 435.19 1101.02 452.366V1419.28C1101.02 1436.46 1094.19 1452.93 1082.05 1465.08C1069.9 1477.22 1053.43 1484.05 1036.25 1484.05H636.954C601.187 1484.05 572.191 1455.05 572.191 1419.28V452.366C572.191 416.598 601.187 387.603 636.954 387.603Z" fill="#404884"/>
<rect x="597.174" y="518.851" width="478.856" height="834.674" fill="#E3EEFF"/>
<rect x="597.174" y="518.851" width="478.856" height="77.534" fill="#ACB0DA"/>
<rect x="657.293" y="947.896" width="47.022" height="118.053" fill="#F2B5BB"/>
<rect x="763.254" y="844.263" width="47.025" height="221.686" fill="#A68CCD"/>
<rect x="869.218" y="867.186" width="47.022" height="198.763" fill="#F2B5BB"/>
<rect x="975.18" y="754.963" width="47.023" height="310.986" fill="#A68CCD"/>
<path fill-rule="evenodd" clip-rule="evenodd" d="M1047.09 1098.44H626.238V690.353H632.658V1092.03H1047.09L1047.09 1098.44Z" fill="#353B6E"/>
<path fill-rule="evenodd" clip-rule="evenodd" d="M669.466 892.611L665.178 887.834L775.267 788.98L877.239 811.132L987.656 688.207L992.435 692.497L879.521 818.197L777.114 795.949L669.466 892.611Z" fill="#353B6E"/>
<path fill-rule="evenodd" clip-rule="evenodd" d="M1001.09 710.659L969.949 680.802L1010.15 670.047L1001.09 710.659Z" fill="#353B6E"/>
<rect x="628.092" y="1122.14" width="28.716" height="28.715" fill="#A68CCD"/>
<rect x="628.092" y="1172.45" width="28.716" height="28.716" fill="#F2B5BB"/>
<rect x="664.718" y="1184.85" width="91.024" height="16.318" fill="#ACB0DA"/>
<rect x="664.718" y="1134.54" width="91.024" height="16.318" fill="#ACB0DA"/>
<rect x="796.965" y="1122.14" width="28.716" height="28.715" fill="#A68CCD"/>
<rect x="796.965" y="1172.45" width="28.716" height="28.716" fill="#F2B5BB"/>
<rect x="833.591" y="1184.85" width="91.023" height="16.318" fill="#ACB0DA"/>
<rect x="833.591" y="1134.54" width="91.023" height="16.318" fill="#ACB0DA"/>
<rect x="949.03" y="1122.14" width="28.716" height="28.715" fill="#A68CCD"/>
<rect x="949.03" y="1172.45" width="28.716" height="28.716" fill="#F2B5BB"/>
<rect x="985.656" y="1184.85" width="59.899" height="16.318" fill="#ACB0DA"/>
<rect x="985.656" y="1134.54" width="59.899" height="16.318" fill="#ACB0DA"/>
<path fill-rule="evenodd" clip-rule="evenodd" d="M871.494 1432.67C880.662 1413.4 872.472 1390.35 853.202 1381.18C833.932 1372.01 810.879 1380.2 801.711 1399.47C792.543 1418.74 800.733 1441.79 820.003 1450.96C839.273 1460.13 862.326 1451.94 871.494 1432.67Z" fill="white"/>
<path fill-rule="evenodd" clip-rule="evenodd" d="M878.644 461.816H794.563C792.583 461.811 790.98 460.208 790.973 458.228V458.228C790.979 456.248 792.583 454.644 794.563 454.638H878.645C880.625 454.645 882.228 456.249 882.233 458.228V458.228C882.227 460.207 880.623 461.81 878.644 461.816Z" fill="white"/>
<path fill-rule="evenodd" clip-rule="evenodd" d="M841.602 422.723C841.602 419.962 839.363 417.723 836.602 417.723C833.841 417.723 831.602 419.962 831.602 422.723C831.602 425.485 833.841 427.723 836.602 427.723C839.363 427.723 841.602 425.485 841.602 422.723V422.723Z" fill="white"/>
<path fill-rule="evenodd" clip-rule="evenodd" d="M753.351 467.457C758.448 467.457 762.58 463.325 762.58 458.228C762.58 453.131 758.448 448.999 753.351 448.999C748.254 448.999 744.122 453.131 744.122 458.228C744.122 463.325 748.254 467.457 753.351 467.457Z" fill="white"/>
<path fill-rule="evenodd" clip-rule="evenodd" d="M716.586 8.00087C704.723 -1.48913 667.949 -9.79313 653.714 28.1669C639.479 66.1269 641.851 81.5489 612.195 101.715C582.539 121.881 573.049 128.999 571.862 161.028C570.675 193.057 564.744 198.988 535.088 215.596C505.432 232.204 471.03 282.026 525.598 282.026H679.812C679.812 282.026 710.655 111.207 732.007 85.1069C753.359 59.0069 716.586 8.00087 716.586 8.00087Z" fill="#3B427B"/>
<path fill-rule="evenodd" clip-rule="evenodd" d="M620.915 317.721C634.463 343.297 626.856 372.008 695.815 367.265C764.774 362.522 827.515 292.04 853.238 287.857C878.961 283.674 881.101 307.357 920.108 325.471C992.441 359.055 1059.42 358.906 1059.42 358.906C1059.42 358.906 889.874 216.056 854.631 216.806C819.388 217.556 709.231 271.322 676.697 277.188C644.163 283.054 620.915 317.721 620.915 317.721Z" fill="#3B427B"/>
<path fill-rule="evenodd" clip-rule="evenodd" d="M844.884 140.186C844.884 140.186 805.876 243.276 776.941 246.017C776.5 246.05 776.056 246.003 775.631 245.877C761.7 241.977 721.09 164.519 703.858 127.364C699.536 117.993 703.589 106.89 712.931 102.506C722.274 98.1216 733.404 102.101 737.849 111.414L780.8 201.479L781.343 200.573L828.166 122.073L844.884 140.186Z" fill="#FFD5C0"/>
<path fill-rule="evenodd" clip-rule="evenodd" d="M775.227 253.028C761.296 249.128 721.091 164.523 703.858 127.368C699.536 117.996 703.589 106.893 712.931 102.509C722.274 98.1255 733.404 102.104 737.849 111.418L780.8 201.483L781.343 200.577C781.943 212.099 781.678 241.256 775.227 253.028Z" fill="#E3616E"/>
<path fill-rule="evenodd" clip-rule="evenodd" d="M1135.85 346.095V346.17L1091.27 335.749L1085.15 364.662L1134.96 377.871C1138.47 379.937 1149.37 385.698 1161.9 385.83L1190.47 387.468L1191.34 372.235L1163.39 370.393C1163.39 370.393 1192.79 344.142 1194.14 320.576L1195.02 305.342C1195.02 305.342 1180.49 339.371 1135.85 346.095Z" fill="#353B6E"/>
<path fill-rule="evenodd" clip-rule="evenodd" d="M718.101 22.7627C718.101 22.7627 740.423 85.5137 708.253 81.1237C689.396 78.5507 680.069 61.2037 680.069 61.2037C680.069 61.2037 671.247 62.8837 669.161 52.0917C667.772 44.9067 677.336 38.2987 680.695 51.2917C680.695 51.2917 684.495 51.3357 687.769 42.7917C689.815 37.4437 690.533 30.5387 698.038 32.1917C705.543 33.8447 717.296 26.7967 718.101 22.7627Z" fill="#FFD5C0"/>
<path fill-rule="evenodd" clip-rule="evenodd" d="M713.655 78.2147C713.655 78.2147 696.395 102.978 699.735 117.289C703.075 131.6 646.235 137.351 658.535 111.042C670.835 84.7327 679.966 78.7417 690.849 53.8947C701.732 29.0477 713.655 78.2147 713.655 78.2147Z" fill="#FFD5C0"/>
<path fill-rule="evenodd" clip-rule="evenodd" d="M749.731 182.146C720.474 242.046 756.695 301.954 756.695 301.954H620.174C620.174 301.954 657.788 242.054 641.074 214.188C624.36 186.322 617.805 164.846 617.805 148.546C617.805 133.113 624.394 118.413 635.916 108.146C641.808 102.789 667.005 98.8708 666.564 101.18L709.623 98.9678L719.082 99.9568C727.44 101.35 730.756 102.367 733.882 108.385C745.621 131.008 762.179 156.658 749.731 182.146Z" fill="#F2B5BB"/>
<path fill-rule="evenodd" clip-rule="evenodd" d="M696.792 283.847C696.792 283.847 723.261 290.813 727.44 289.42C731.619 288.027 745.551 279.668 755.303 283.847C762.228 286.815 771.964 293.297 777.026 296.803C777.892 297.402 778.334 298.448 778.16 299.487C777.985 300.526 777.227 301.371 776.212 301.655C773.475 302.343 770.622 302.445 767.842 301.955C756.98 300.585 745.948 302.023 735.8 306.134C728.555 309.234 687.04 300.562 687.04 300.562L696.792 283.847Z" fill="#FFD5C0"/>
<path fill-rule="evenodd" clip-rule="evenodd" d="M643.031 119.533V119.533C632.095 117.757 621.75 125.063 619.767 135.964C611.567 181.076 597.917 281.264 610.418 286.634C626.252 293.434 699.578 303.352 699.578 303.352L706.544 285.241L639.433 261.49L659.822 143.064C660.743 137.713 659.487 132.217 656.334 127.797C653.18 123.378 648.391 120.402 643.031 119.533Z" fill="#FFD5C0"/>
<path fill-rule="evenodd" clip-rule="evenodd" d="M646.134 106.309V106.309C634.612 104.438 623.713 112.135 621.622 123.619C612.985 171.15 596.275 280.809 609.445 286.464C626.127 293.628 642.345 255.874 642.345 255.874L659.595 151.331C661.621 139.585 657.901 108.215 646.134 106.309Z" fill="#E3616E"/>
<path fill-rule="evenodd" clip-rule="evenodd" d="M713.93 142.971C700.237 148.449 660.992 110.038 654.03 101.178C656.705 100.986 659.359 100.577 661.967 99.9548L709.626 98.9658C721.84 123.151 720.895 140.186 713.93 142.971Z" fill="#FFD5C0"/>
<path fill-rule="evenodd" clip-rule="evenodd" d="M822.844 134.306C826.031 125.113 821.725 114.245 827.502 107.093C832.65 100.719 834.002 103.048 840.373 105.254C846.744 107.46 861.946 105.132 860.473 108.318C859 111.504 844.6 151.957 833.322 146.318C822.044 140.679 822.844 134.306 822.844 134.306Z" fill="#FFD5C0"/>
<path fill-rule="evenodd" clip-rule="evenodd" d="M872.395 87.1118C873.78 87.8547 874.467 89.4573 874.05 90.9728C873.682 92.9028 847.85 130.78 846.102 133.354C844.354 135.928 844.171 137.399 836.357 137.49C828.543 137.581 824.405 137.49 822.199 137.49C819.993 137.49 819.441 134.364 820.084 133.354C820.727 132.344 872.395 87.1118 872.395 87.1118Z" fill="#423565"/>
<path fill-rule="evenodd" clip-rule="evenodd" d="M838.228 135.285H821.702C819.841 135.285 819.377 133.763 820.671 131.902L849.554 90.3737C850.898 88.4808 852.985 87.2501 855.292 86.9897H871.818C873.679 86.9897 874.143 88.5127 872.849 90.3737L843.966 131.902C842.622 133.794 840.535 135.025 838.228 135.285V135.285Z" fill="#A68CCD"/>
<path fill-rule="evenodd" clip-rule="evenodd" d="M870.081 92.7729H848.988L832.168 116.957L867.829 96.0099L870.081 92.7729Z" fill="#3B427B"/>
<path fill-rule="evenodd" clip-rule="evenodd" d="M832.169 116.954L823.418 129.536H844.511L867.83 96.0068L832.169 116.954Z" fill="#3B427B"/>
<path fill-rule="evenodd" clip-rule="evenodd" d="M832.75 133.277C833.827 132.51 834.387 131.448 834 130.903C833.612 130.359 832.425 130.538 831.347 131.304C830.27 132.07 829.71 133.133 830.097 133.678C830.485 134.222 831.672 134.043 832.75 133.277Z" fill="#F0EDE6"/>
<path fill-rule="evenodd" clip-rule="evenodd" d="M863.134 90.2576H859.434C859.347 90.2576 859.325 90.1866 859.385 90.0996V90.0996C859.448 90.0107 859.545 89.9529 859.653 89.9406H863.353C863.441 89.9406 863.462 90.0116 863.402 90.0996V90.0996C863.339 90.1878 863.242 90.2452 863.134 90.2576V90.2576Z" fill="#F0EDE6"/>
<path fill-rule="evenodd" clip-rule="evenodd" d="M862.7 88.5346C862.785 88.4136 862.755 88.3156 862.634 88.3156C862.484 88.3319 862.348 88.4116 862.26 88.5346C862.176 88.6566 862.205 88.7556 862.328 88.7556C862.478 88.7388 862.614 88.6583 862.7 88.5346V88.5346Z" fill="#F0EDE6"/>
<path fill-rule="evenodd" clip-rule="evenodd" d="M857.893 90.3354C858.151 90.1524 858.285 89.8985 858.192 89.7684C858.1 89.6384 857.816 89.6813 857.558 89.8644C857.301 90.0474 857.167 90.3013 857.26 90.4313C857.352 90.5614 857.636 90.5185 857.893 90.3354Z" fill="#F0EDE6"/>
<path fill-rule="evenodd" clip-rule="evenodd" d="M826.278 110.359C827.948 106.524 830.371 101.304 834.547 103.859C838.723 106.414 844.988 104.605 845.991 105.459C846.994 106.313 845.491 114.089 835.55 112.278C830.288 111.32 829.95 119.523 825.192 119.843C823.019 119.842 826.278 110.359 826.278 110.359Z" fill="#FFD5C0"/>
<path fill-rule="evenodd" clip-rule="evenodd" d="M857.322 109.294C864.487 109.434 869.06 113.368 862.513 115.603C855.966 117.838 853.213 112.403 855.027 110.903C855.695 110.24 856.471 109.696 857.322 109.294Z" fill="#FFD5C0"/>
<path fill-rule="evenodd" clip-rule="evenodd" d="M852.312 122.061C858.585 125.527 860.795 131.138 853.961 130.061C847.127 128.984 847.226 122.89 849.533 122.406C850.433 122.134 851.373 122.017 852.312 122.061Z" fill="#FFD5C0"/>
<path fill-rule="evenodd" clip-rule="evenodd" d="M848.623 127.367C853.278 131.345 854.163 136.421 848.629 134.346C843.095 132.271 844.223 127.188 846.238 127.18C847.038 127.106 847.845 127.169 848.623 127.367V127.367Z" fill="#FFD5C0"/>
<path fill-rule="evenodd" clip-rule="evenodd" d="M855.648 115.857C863.789 117.539 868.074 122.584 860.076 123.489C852.078 124.394 850.221 118.189 852.648 117.022C853.581 116.478 854.593 116.085 855.648 115.857V115.857Z" fill="#FFD5C0"/>
<path fill-rule="evenodd" clip-rule="evenodd" d="M941.012 317.112C917.306 314.958 865.783 299.001 787.769 301.788C740.263 300.124 626.646 301.954 620.176 301.954C620.176 301.954 607.75 384.163 642.968 388.022C676.014 391.631 811.452 378.41 828.168 378.41C828.157 378.264 970.425 398.397 1027.64 386.923C1084.85 375.449 1122.21 375.81 1122.21 375.81L1128.95 333.964C1128.95 333.964 973.244 320.056 941.012 317.112Z" fill="#ACB0DA"/>
<path fill-rule="evenodd" clip-rule="evenodd" d="M1010.48 1054.9C997.383 1067.17 998.338 1087.25 998.506 1089.98C999.843 1111.64 1017.65 1125.25 1030.97 1133.51C1048.75 1144.54 1039.55 1160.72 1046.82 1177.82C1053.69 1193.98 1078.1 1203.58 1096.87 1197.96C1122.68 1190.23 1131.33 1155.67 1130.66 1133.87C1129.23 1087.12 1083.83 1062.09 1077.61 1058.79C1071.09 1055.33 1032.12 1034.65 1010.48 1054.9Z" fill="#353B6E"/>
<path fill-rule="evenodd" clip-rule="evenodd" d="M909.016 1515.94L909.086 1515.96L917.932 1471.05L946.8 1477.37L938.34 1528.2C938.778 1532.26 939.54 1544.56 934.504 1556.04L924.243 1582.74L910 1577.27L919.826 1551.04C919.826 1551.04 883.799 1567.04 861.765 1558.57L847.523 1553.09C847.523 1553.09 884.515 1553.86 909.016 1515.94Z" fill="#E3616E"/>
<path fill-rule="evenodd" clip-rule="evenodd" d="M1030.86 1542.09H1030.94L1023.92 1496.86L1053.21 1492.95L1062.61 1543.61C1064.41 1547.27 1069.33 1558.57 1068.51 1571.08L1067.98 1599.68L1052.73 1599.4L1053.01 1571.39C1053.01 1571.39 1024.61 1598.72 1001.01 1598.29L985.75 1598.01C985.75 1598.01 1020.78 1586.1 1030.86 1542.09Z" fill="#E3616E"/>
<path fill-rule="evenodd" clip-rule="evenodd" d="M968.466 1134.94C968.466 1134.94 970.838 1115.96 1037.27 1143.24C1093.31 1166.26 1116.75 1166.97 1113.19 1190.69C1109.63 1214.42 1081.16 1260.68 1094.21 1308.13C1107.26 1355.58 986.257 1295.08 989.815 1282.03C993.373 1268.98 993.374 1241.7 991.001 1222.72C988.628 1203.74 968.466 1134.94 968.466 1134.94Z" fill="#E3616E"/>
<path fill-rule="evenodd" clip-rule="evenodd" d="M983.319 1324.61C985.813 1380.15 1024.33 1494.37 1029.28 1536.14L1059.81 1531.15C1059.81 1531.15 1046.76 1376.94 1027.78 1342.54C1027.78 1342.54 980.827 1269.07 983.319 1324.61Z" fill="#FFD5C0"/>
<path fill-rule="evenodd" clip-rule="evenodd" d="M1038.46 1367.45L982.702 1329.49C983.177 1344.69 976.802 1377.39 968.989 1411.14C957.289 1461.66 942.369 1514.55 942.369 1514.55L911.526 1499.13C911.526 1499.13 918.11 1448.16 926.639 1393.92C934.907 1341.33 945.002 1285.66 952.701 1270.36C953.132 1269.46 953.644 1268.61 954.231 1267.81C969.652 1247.64 1093.02 1306.95 1093.02 1306.95C1116.75 1380.5 1069.3 1379.31 1038.46 1367.45Z" fill="#FFD5C0"/>
<path fill-rule="evenodd" clip-rule="evenodd" d="M1017.77 1072.64C1017.77 1072.64 1010.99 1122.19 1039.94 1122.19C1068.89 1122.19 1063.94 1071.86 1063.94 1071.86L1017.77 1072.64Z" fill="#FFD5C0"/>
<rect x="1028.28" y="1109.41" width="24.777" height="55.814" rx="7.915" fill="#FFD5C0"/>
<path fill-rule="evenodd" clip-rule="evenodd" d="M1110.82 1181.21L1155.9 1311.7L1138.1 1318.81L1095.4 1231.03L1110.82 1181.21Z" fill="#FFD5C0"/>
<path fill-rule="evenodd" clip-rule="evenodd" d="M1112 1178.84L1158.35 1270.18L1104.97 1289.16L1087.18 1219.17C1087.18 1219.17 1086.3 1185.56 1112 1178.84Z" fill="#E3616E"/>
<path fill-rule="evenodd" clip-rule="evenodd" d="M1038.46 1367.45L1049.73 1443.96L968.988 1411.14L926.639 1393.92L887.801 1378.13L952.701 1270.36L954.231 1267.81C969.652 1247.64 1093.02 1306.95 1093.02 1306.95C1116.75 1380.5 1069.3 1379.31 1038.46 1367.45Z" fill="#ACB0DA"/>
<path fill-rule="evenodd" clip-rule="evenodd" d="M969.653 1132.57C956.604 1175.28 929.32 1257.13 948.3 1264.25C967.28 1271.36 1069.3 1320 1069.3 1320L1078.79 1297.46L976.772 1244.08L993.38 1174.09L969.653 1132.57Z" fill="#FFD5C0"/>
<path fill-rule="evenodd" clip-rule="evenodd" d="M969.655 1132.57L923.391 1225.1L976.772 1244.08L994.566 1174.09C994.566 1174.09 995.355 1139.29 969.655 1132.57Z" fill="#E3616E"/>
<rect x="1029.97" y="1165.79" width="33.686" height="69.843" rx="4.125" fill="#A68CCD"/>
<rect x="1032.34" y="1169.35" width="5.149" height="10.676" rx="0.631" fill="#E3616E"/>
<path fill-rule="evenodd" clip-rule="evenodd" d="M1034.91 1174.09C1035.89 1174.09 1036.69 1173.29 1036.69 1172.31C1036.69 1171.33 1035.89 1170.53 1034.91 1170.53C1033.93 1170.53 1033.13 1171.33 1033.13 1172.31C1033.13 1173.29 1033.93 1174.09 1034.91 1174.09Z" fill="#404884"/>
<path fill-rule="evenodd" clip-rule="evenodd" d="M1034.91 1172.9C1035.24 1172.9 1035.51 1172.64 1035.51 1172.31C1035.51 1171.98 1035.24 1171.72 1034.91 1171.72C1034.58 1171.72 1034.32 1171.98 1034.32 1172.31C1034.32 1172.64 1034.58 1172.9 1034.91 1172.9Z" fill="#293054"/>
<path fill-rule="evenodd" clip-rule="evenodd" d="M1034.91 1178.83C1035.89 1178.83 1036.69 1178.04 1036.69 1177.06C1036.69 1176.07 1035.89 1175.28 1034.91 1175.28C1033.93 1175.28 1033.13 1176.07 1033.13 1177.06C1033.13 1178.04 1033.93 1178.83 1034.91 1178.83Z" fill="#404884"/>
<path fill-rule="evenodd" clip-rule="evenodd" d="M1034.91 1177.65C1035.24 1177.65 1035.51 1177.38 1035.51 1177.06C1035.51 1176.73 1035.24 1176.46 1034.91 1176.46C1034.58 1176.46 1034.32 1176.73 1034.32 1177.06C1034.32 1177.38 1034.58 1177.65 1034.91 1177.65Z" fill="#293054"/>
<path fill-rule="evenodd" clip-rule="evenodd" d="M1052.69 1242.89L1071.67 1227.47L1151.81 1305.89C1157.53 1313.28 1156.87 1323.77 1150.26 1330.38V1330.38C1146.55 1334.09 1141.44 1336.06 1136.2 1335.79C1130.95 1335.52 1126.07 1333.04 1122.75 1328.97L1052.69 1242.89Z" fill="#FFD5C0"/>
<path fill-rule="evenodd" clip-rule="evenodd" d="M1071.67 1227.47C1071.67 1227.47 1064.55 1210.86 1064.55 1202.56C1064.55 1194.26 1066.93 1189.51 1066.93 1189.51C1066.93 1189.51 1059.81 1182.39 1057.44 1197.81C1055.06 1213.23 1056.25 1210.86 1056.25 1210.86C1056.25 1210.86 1031.34 1203.74 1028.97 1203.74C1026.59 1203.74 1021.85 1228.65 1034.9 1233.4C1047.95 1238.14 1052.69 1242.89 1052.69 1242.89C1052.69 1242.89 1075.23 1240.52 1071.67 1227.47Z" fill="#FFD5C0"/>
<path fill-rule="evenodd" clip-rule="evenodd" d="M1026.59 1066.14C1026.59 1066.14 1062.18 1076.82 1058.62 1106.47C1055.06 1136.13 1062.18 1134.94 1074.04 1124.27C1085.91 1113.59 1085.91 1088.68 1085.91 1088.68C1085.91 1088.68 1088.28 1069.7 1066.93 1063.77C1045.57 1057.84 1026.59 1066.14 1026.59 1066.14Z" fill="#353B6E"/>
<path fill-rule="evenodd" clip-rule="evenodd" d="M1043.2 1069.7C1043.2 1069.7 1034.9 1085.12 1027.78 1083.94C1020.66 1082.75 1015.92 1093.43 1015.92 1105.29C1015.92 1117.15 998.122 1079.19 1009.99 1069.7C1021.85 1060.21 1043.2 1062.58 1043.2 1069.7Z" fill="#353B6E"/>
</svg>
